<svg xmlns="http://www.w3.org/2000/svg" id="Ebene_2" viewBox="0 0 15.991 15.34"><defs><style>.cls-1{fill:#fb9e3b}</style></defs><g id="Ebene_1-2"><g id="Ebene_2-2"><g id="Icons"><path d="M5.52 5.86h.11a4.14 4.14 0 0 1 0-.61 4.24 4.24 0 0 1 2.36-3.84 2.93 2.93 0 1 0-2.499 4.451h.03Z" class="cls-1"/><circle cx="9.82" cy="5.25" r="3.25" class="cls-1"/><path d="M12.65 8.46a4.26 4.26 0 0 1-5.66.01 6.46 6.46 0 0 0-3.32 5.72c-.002.386.032.771.1 1.15h12.12c.068-.379.102-.764.1-1.15a6.46 6.46 0 0 0-3.34-5.73ZM6.38 7.74a4.442 4.442 0 0 1-.52-1h-.34a3.832 3.832 0 0 1-2.53-.91 5.933 5.933 0 0 0-2.9 6.18h3a6.58 6.58 0 0 1 3.29-4.27Z" class="cls-1"/></g></g></g></svg>