<svg xmlns="http://www.w3.org/2000/svg" viewBox="0 0 15.986 14"><path d="M7.986 0a.702.702 0 0 0-.49.2l-.11.15-.4.65-6.89 12a1.092 1.092 0 0 0-.08.19.69.69 0 0 0 .48.81h14.8a.69.69 0 0 0 .69-.69.68.68 0 0 0-.09-.35L8.696.49a1.165 1.165 0 0 0-.22-.31.7.7 0 0 0-.49-.18Z" style="fill:#ff332e"/><path d="M7.986 0a.702.702 0 0 0-.49.2l-.11.15-.4.65-6.89 12a1.092 1.092 0 0 0-.08.19.69.69 0 0 0 .48.81h14.8a.69.69 0 0 0 .69-.69.68.68 0 0 0-.09-.35L8.696.49a1.165 1.165 0 0 0-.22-.31.7.7 0 0 0-.49-.18Z" style="fill:red"/><path d="M8.686 6.64a.779.779 0 0 0-.793-.766c-.029 0-.058.003-.087.006a1.81 1.81 0 0 0-1.24.56l-1-.9a3.11 3.11 0 0 1 2.36-1.08c1.37 0 2.45.63 2.45 2 0 1.58-2 1.78-1.81 3.16h-1.58c-.22-1.62 1.7-2.09 1.7-2.98Zm-2 4.93a1.15 1.15 0 0 1 1.2-1.2 1.15 1.15 0 0 1 1.2 1.2 1.2 1.2 0 1 1-2.4 0Z" style="fill:#fff"/></svg>