<svg xmlns="http://www.w3.org/2000/svg" viewBox="0 0 16.053 15"><path d="M5.191 13.841a.376.376 0 0 1-.614 0c-.937-1.328-1.6-2.299-1.988-2.912C.863 8.208 0 6.193 0 4.884 0 2.186 2.186 0 4.884 0s4.884 2.186 4.884 4.884c0 1.307-.86 3.317-2.579 6.031-.391.615-1.057 1.591-1.998 2.926Zm-.294-5.808a3.005 3.005 0 1 0 0-6.01 3.005 3.005 0 0 0 0 6.01Zm-.013-1.167a1.878 1.878 0 1 1 0-3.756 1.878 1.878 0 0 1 0 3.756Z" style="fill:#5381a9"/><path d="m16.053 11-4-4v2.333H8.991a40.379 40.379 0 0 1-2.04 3.334h5.102V15l4-4Z" style="fill:#ff332e;fill-rule:evenodd"/></svg>