<svg xmlns="http://www.w3.org/2000/svg" xml:space="preserve" id="Ebene_2_00000009592359628872608280000002077212278160519358_" x="0" y="0" style="enable-background:new 0 0 32 32" version="1.1" viewBox="0 0 32 32"><style>.st1{fill:#fff}</style><path id="deaktiviert_mit_Ecke" d="M16 32H6c-3.3 0-6-2.7-6-6V6c0-3.3 2.7-6 6-6h20c3.3 0 6 2.7 6 6v10L16 32z" style="fill:#afadac"/><path id="Icons_Rätsel_spezial" d="m27.21 14.06-2.06-5.88a4 4 0 0 0-3.78-2.68H10.63a4 4 0 0 0-3.78 2.68l-2 5.88A3.998 3.998 0 0 0 3 17.4v7.1a2 2 0 1 0 4 0v-1.26s5.28.26 9 .26 9-.26 9-.26v1.26a2 2 0 1 0 4 0v-7.1a4 4 0 0 0-1.79-3.34zm-19.62-2 1.15-3.22a2 2 0 0 1 1.89-1.34h10.74c.851 0 1.609.537 1.89 1.34l1.14 3.27a.71.71 0 0 1-.78 1A47.433 47.433 0 0 0 16 12.5a47.412 47.412 0 0 0-7.62.56.72.72 0 0 1-.79-.95v-.05zM7.5 19.5a1.5 1.5 0 1 1 .001-3.001A1.5 1.5 0 0 1 7.5 19.5zm11.5-1h-6a1 1 0 0 1 0-2h6a1 1 0 0 1 0 2zm5.5 1a1.5 1.5 0 1 1 .001-3.001A1.5 1.5 0 0 1 24.5 19.5z" class="st1"/><path id="Ecke" d="M16 16v16h10c3.3 0 6-2.7 6-6V16H16z" class="st1"/><path d="m28.8 24.1-4.6-4.6c-.1-.1-.3-.1-.5 0L19.1 24c-.1.1-.1.3 0 .5.1.1.1.1.2.1h.7v3.7c0 .3.2.5.5.5h6.8c.3 0 .5-.2.5-.5v-3.7h.8c.2 0 .3-.1.3-.3 0-.1 0-.2-.1-.2z" style="fill:#a35b21"/><path id="Archiviert" d="M29.039.84.84 29.039a6.051 6.051 0 0 0 2.121 2.121l28.2-28.2A6.043 6.043 0 0 0 29.039.84z" style="fill:#6b6c6d"/></svg>