<svg xmlns="http://www.w3.org/2000/svg" xml:space="preserve" id="Ebene_1" x="0" y="0" style="enable-background:new 0 0 32 32" version="1.1" viewBox="0 0 32 32"><style>.st1{fill:#fff}</style><g id="Ebene_2_00000106866080185988951740000010016803720131482542_"><path id="deaktiviert_mit_Ecke" d="M16 32H6a6 6 0 0 1-6-6V6a6 6 0 0 1 6-6h20a6 6 0 0 1 6 6v10L16 32z" style="fill:#afadac"/><path id="Icons_Rätsel_spezial" d="m27.21 14.06-2.06-5.88a4 4 0 0 0-3.78-2.68H10.63a4 4 0 0 0-3.78 2.68l-2 5.88A3.998 3.998 0 0 0 3 17.4v7.1a2 2 0 1 0 4 0v-1.26s5.28.26 9 .26 9-.26 9-.26v1.26a2 2 0 1 0 4 0v-7.1a4 4 0 0 0-1.79-3.34zm-19.62-2 1.15-3.22a2 2 0 0 1 1.89-1.34h10.74a2 2 0 0 1 1.89 1.34l1.14 3.27a.71.71 0 0 1-.78 1A47.433 47.433 0 0 0 16 12.5a47.412 47.412 0 0 0-7.62.56.72.72 0 0 1-.79-.95v-.05zM7.5 19.5a1.5 1.5 0 1 1 .001-3.001A1.5 1.5 0 0 1 7.5 19.5zm11.5-1h-6a1 1 0 0 1 0-2h6a1 1 0 0 1 0 2zm5.5 1a1.5 1.5 0 1 1 .001-3.001A1.5 1.5 0 0 1 24.5 19.5z" class="st1"/><path id="Ecke" d="M16 16v16h10a6 6 0 0 0 6-6V16H16z" class="st1"/><path id="Found" d="M29.87 21.26a.7.7 0 0 1-.22.52l-5.48 5.47-1 1a.72.72 0 0 1-1 0l-1-1-2.74-2.74a.7.7 0 0 1-.01-.99l.01-.01 1-1a.72.72 0 0 1 1 0l2.23 2.23 5-5a.72.72 0 0 1 1 0l1 1a.67.67 0 0 1 .21.52z" style="fill:#51b70f"/><path id="Boxen_32x32_transparent" d="M0 0h32v32H0z" style="fill:none"/></g><path id="Archiviert" d="M29.039.84.84 29.039a6.051 6.051 0 0 0 2.121 2.121l28.2-28.2A6.043 6.043 0 0 0 29.039.84z" style="fill:#6b6c6d"/></svg>