<svg xmlns="http://www.w3.org/2000/svg" xml:space="preserve" id="Ebene_1" x="0" y="0" style="enable-background:new 0 0 32 32" version="1.1" viewBox="0 0 32 32"><style>.st1{fill:#fff}</style><path id="deaktiviert_mit_Ecke" d="M16 32H6c-3.3 0-6-2.7-6-6V6c0-3.3 2.7-6 6-6h20c3.3 0 6 2.7 6 6v10L16 32z" style="fill:#afadac"/><path id="Icons_Rätsel_spezial" d="M3.9 14.4c0 4.6 3.8 8.5 8.9 9.7l5.2 6-.2-5.7c5.9-.7 10.5-4.9 10.5-10 0-5.6-5.5-10.1-12.2-10.1S3.9 8.9 3.9 14.4zm10.3-1.2c0 .6-.4 1-1 1s-1-.4-1-1v-2.6c0-.6.4-1 1-1s1 .4 1 1v2.6zm6 0c0 .6-.4 1-1 1s-1-.4-1-1v-2.6c0-.6.4-1 1-1s1 .4 1 1v2.6zm-9 3.1c.5-.2 1.1 0 1.3.5.5 1.1 1.7 1.7 3.5 1.7s3-.6 3.5-1.7c.2-.5.8-.8 1.3-.6.5.2.8.8.6 1.3v.1c-.6 1.3-2 2.9-5.4 2.9s-4.8-1.6-5.4-2.9c-.1-.4.1-1 .6-1.3z" class="st1"/><path id="Ecke" d="M16 16v16h10c3.3 0 6-2.7 6-6V16H16z" class="st1"/><path d="m28.8 24.1-4.6-4.6c-.1-.1-.3-.1-.5 0L19.1 24c-.1.1-.1.3 0 .5.1.1.1.1.2.1h.7v3.7c0 .3.2.5.5.5h6.8c.3 0 .5-.2.5-.5v-3.7h.8c.2 0 .3-.1.3-.3 0-.1 0-.2-.1-.2z" style="fill:#a35b21"/><path id="Archiviert" d="M29.039.84.84 29.039a6.051 6.051 0 0 0 2.121 2.121l28.2-28.2A6.043 6.043 0 0 0 29.039.84z" style="fill:#6b6c6d"/></svg>