<svg xmlns="http://www.w3.org/2000/svg" viewBox="0 0 32 32"><path d="M26 32H6c-3.3 0-6-2.7-6-6V6c0-3.3 2.7-6 6-6h20c3.3 0 6 2.7 6 6v20c0 3.3-2.7 6-6 6Z" style="fill:#afadac"/><path d="M5.064 12.131c.072-.143.88-2.225 1.321-3.159.308-.651.741-1.104 1.256-1.49.779-.584 2.073-.942 6.007-1.028 6.771-.146 12.782-.003 12.782-.003v2.921h-5.022s-.665 7.248-.714 7.795c-.606 6.676 4.823 5.501 4.896 2.458h.882s-.172 4-3.034 5.216c-2.065.877-6.227.294-6.011-4.039.23-4.635.935-11.43.935-11.43s-4.105.004-4.664 0c-.285 4.543-.887 10.062-1.448 12.465-.634 3.359-3.081 4.18-4.843 2.696-1.484-1.295-.459-2.456.613-3.737.518-.62 2.103-2.659 2.862-5.273.81-2.791.825-6.151.825-6.151s-2.21-.248-3.788.494c-.741.349-1.241 1.035-1.781 1.911-.202.328-.226.431-.528.387-.342-.049-.546-.033-.546-.033Z" style="fill:#fff"/></svg>