<svg xmlns="http://www.w3.org/2000/svg" xml:space="preserve" id="Ebene_2_00000095333713083768182500000000549652392297334928_" x="0" y="0" style="enable-background:new 0 0 32 32" version="1.1" viewBox="0 0 32 32"><style>.st1{fill:#fff}</style><path d="M16 32H6c-3.3 0-6-2.7-6-6V6c0-3.3 2.7-6 6-6h20c3.3 0 6 2.7 6 6v10L16 32z" style="fill:#58c6a2"/><path d="M5.064 12.131c.072-.143.88-2.225 1.321-3.159.308-.651.741-1.104 1.256-1.49.779-.584 2.073-.942 6.007-1.028 6.771-.146 12.782-.003 12.782-.003v2.921h-5.022s-.665 7.248-.714 7.795c-.606 6.676 4.823 5.501 4.896 2.458h.882s-.172 4-3.034 5.216c-2.065.877-6.227.294-6.011-4.039.23-4.635.935-11.43.935-11.43s-4.105.004-4.664 0c-.285 4.543-.887 10.062-1.448 12.465-.634 3.359-3.081 4.18-4.843 2.696-1.484-1.295-.459-2.456.613-3.737.518-.62 2.103-2.659 2.862-5.273.81-2.791.825-6.151.825-6.151s-2.21-.248-3.788.494c-.741.349-1.241 1.035-1.781 1.911-.202.328-.226.431-.528.387-.342-.049-.546-.033-.546-.033z" class="st1"/><path d="M16 16v16h10c3.3 0 6-2.7 6-6V16H16z" class="st1"/><path d="m28.8 24.1-4.6-4.6c-.1-.1-.3-.1-.5 0L19.1 24c-.1.1-.1.3 0 .5.1.1.1.1.2.1h.7v3.7c0 .3.2.5.5.5h6.8c.3 0 .5-.2.5-.5v-3.7h.8c.2 0 .3-.1.3-.3 0-.1 0-.2-.1-.2z" style="fill:#a35b21"/></svg>