<svg xmlns="http://www.w3.org/2000/svg" xml:space="preserve" id="Ebene_1" x="0" y="0" style="enable-background:new 0 0 32 32" version="1.1" viewBox="0 0 32 32"><style>.st1{fill:#fff}</style><path id="deaktiviert_mit_Ecke" d="M16 32H6c-3.3 0-6-2.7-6-6V6c0-3.3 2.7-6 6-6h20c3.3 0 6 2.7 6 6v10L16 32z" style="fill:#afadac"/><g id="Icons_Rätsel_spezial"><path d="M27.9 9.7v.9H4.1v-.9c0-1.5 1.2-2.8 2.8-2.8h18.3c1.5 0 2.7 1.3 2.7 2.8zM26.4 12v5.4c0 1.5-1.2 2.8-2.8 2.8H8.3c-1.5 0-2.8-1.3-2.8-2.8V12h20.9z" class="st1"/><circle cx="9.9" cy="24.1" r="2.3" class="st1"/><circle cx="22" cy="24.1" r="2.3" class="st1"/></g><path id="Ecke" d="M16 16v16h10c3.3 0 6-2.7 6-6V16H16z" class="st1"/><path d="m28.8 24.1-4.6-4.6c-.1-.1-.3-.1-.5 0L19.1 24c-.1.1-.1.3 0 .5.1.1.1.1.2.1h.7v3.7c0 .3.2.5.5.5h6.8c.3 0 .5-.2.5-.5v-3.7h.8c.2 0 .3-.1.3-.3 0-.1 0-.2-.1-.2z" style="fill:#a35b21"/></svg>