<svg xmlns="http://www.w3.org/2000/svg" xml:space="preserve" id="Ebene_1" x="0" y="0" style="enable-background:new 0 0 32 32" version="1.1" viewBox="0 0 32 32"><style>.st1{fill:#fff}</style><g id="Ebene_2_00000013174898278961036890000012811143478928392088_"><path id="aktiv" d="M6 0h20c3.3 0 6 2.7 6 6v20c0 3.3-2.7 6-6 6H6c-3.3 0-6-2.7-6-6V6c0-3.3 2.7-6 6-6z" style="fill:#7c8cd1"/><g id="Icons_Rätsel_spezial"><path d="M27.9 9.7v.9H4.1v-.9c0-1.5 1.2-2.8 2.8-2.8h18.3c1.5 0 2.7 1.3 2.7 2.8zM26.4 12v5.4c0 1.5-1.2 2.8-2.8 2.8H8.3c-1.5 0-2.8-1.3-2.8-2.8V12h20.9z" class="st1"/><circle cx="9.9" cy="24.1" r="2.3" class="st1"/><circle cx="22" cy="24.1" r="2.3" class="st1"/></g><path id="Ecke" d="M16 16v16h10c3.3 0 6-2.7 6-6V16H16z" class="st1"/><path id="Found" d="M29.9 21.3c0 .2-.1.4-.2.5l-5.5 5.5-1 1c-.3.3-.7.3-1 0l-1-1-2.7-2.7c-.3-.3-.3-.7 0-1l1-1c.3-.3.7-.3 1 0l2.2 2.2 5-5c.3-.3.7-.3 1 0l1 1c.1.1.2.3.2.5z" style="fill:#51b70f"/><path id="Boxen_32x32_transparent" d="M32 0v32H0" style="fill:none"/></g></svg>