<svg xmlns="http://www.w3.org/2000/svg" xml:space="preserve" id="Ebene_1" x="0" y="0" style="enable-background:new 0 0 32 32" version="1.1" viewBox="0 0 32 32"><style>.st1{fill:#fff}</style><g id="Ebene_2_00000162328442478306386210000005796106272742411698_"><path id="deaktiviert" d="M6 0h20c3.3 0 6 2.7 6 6v20c0 3.3-2.7 6-6 6H6c-3.3 0-6-2.7-6-6V6c0-3.3 2.7-6 6-6z" style="fill:#afadac"/><g id="Icons"><path d="M27.9 9.7v.9H4.1v-.9c0-1.5 1.2-2.8 2.8-2.8h18.3c1.5 0 2.7 1.3 2.7 2.8zM26.4 12v5.4c0 1.5-1.2 2.8-2.8 2.8H8.3c-1.5 0-2.8-1.3-2.8-2.8V12h20.9z" class="st1"/><circle cx="9.9" cy="24.1" r="2.3" class="st1"/><circle cx="22" cy="24.1" r="2.3" class="st1"/></g></g></svg>