<svg xmlns="http://www.w3.org/2000/svg" viewBox="0 0 28 28"><defs><style>.cls-1{fill:#043eb2}.cls-3{fill:#fff}</style></defs><g id="Ebene_2" data-name="Ebene 2"><g id="Rand_blau" data-name="Rand blau"><rect width="24" height="24" x="4" y="4" class="cls-1" rx="5.75"/><rect width="24" height="24" x="4" y="4" class="cls-1" rx="5.75" transform="rotate(90 16 16)"/></g><rect id="Flächen_aktiv" width="20" height="20" x="6" y="6" data-name="Flächen aktiv" rx="3.75" style="fill:#f48939"/><g id="Symbole_weiß" data-name="Symbole weiß"><path d="M18.691 17.166v.575H8.156v-.575a1.728 1.728 0 0 1 1.723-1.723h7.089a1.728 1.728 0 0 1 1.723 1.723ZM17.755 18.576v3.342a1.728 1.728 0 0 1-1.723 1.723h-5.217a1.728 1.728 0 0 1-1.723-1.723v-3.342Z" class="cls-3"/><path d="M14.245 14.193h2.723a2.976 2.976 0 0 1 2.973 2.973v.143h1.244a1.727 1.727 0 0 0 1.723-1.722v-3.343h-8.663Zm7.876-5.081h-7.089a1.728 1.728 0 0 0-1.723 1.723v.574h10.535v-.574a1.728 1.728 0 0 0-1.723-1.723Z" class="cls-3"/></g><g id="OC_Logo_größer" data-name="OC Logo größer"><circle cx="7.5" cy="7.5" r="7.5" class="cls-1"/><path d="M1.548 7.352a2.868 2.868 0 0 1 .759-2.122 2.855 2.855 0 0 1 2.115-.76 2.913 2.913 0 0 1 2.141.746 2.814 2.814 0 0 1 .751 2.09 3.425 3.425 0 0 1-.328 1.6 2.345 2.345 0 0 1-.949.972 3.141 3.141 0 0 1-1.547.347 3.555 3.555 0 0 1-1.558-.3 2.35 2.35 0 0 1-1-.949 3.153 3.153 0 0 1-.384-1.624Zm1.72.007a1.864 1.864 0 0 0 .313 1.211 1.062 1.062 0 0 0 .852.368 1.062 1.062 0 0 0 .858-.36 2.064 2.064 0 0 0 .3-1.295 1.721 1.721 0 0 0-.317-1.148 1.084 1.084 0 0 0-.86-.363 1.043 1.043 0 0 0-.835.369 1.87 1.87 0 0 0-.311 1.218ZM11.945 7.853l1.507.455a2.764 2.764 0 0 1-.478 1.059 2.08 2.08 0 0 1-.811.642 3.032 3.032 0 0 1-1.231.216 3.577 3.577 0 0 1-1.483-.264 2.347 2.347 0 0 1-.993-.927 3.145 3.145 0 0 1-.417-1.7 2.887 2.887 0 0 1 .735-2.123 2.8 2.8 0 0 1 2.078-.742 2.817 2.817 0 0 1 1.653.426A2.5 2.5 0 0 1 13.4 6.2l-1.518.338a1.287 1.287 0 0 0-.168-.372 1 1 0 0 0-.352-.3 1.028 1.028 0 0 0-.467-.106 1.01 1.01 0 0 0-.9.47 2 2 0 0 0-.235 1.1 2.088 2.088 0 0 0 .28 1.269.967.967 0 0 0 .79.343.959.959 0 0 0 .746-.278 1.714 1.714 0 0 0 .369-.811Z" class="cls-3"/></g></g></svg>