<svg xmlns="http://www.w3.org/2000/svg" xml:space="preserve" id="Ebene_1" x="0" y="0" style="enable-background:new 0 0 32 32" version="1.1" viewBox="0 0 32 32"><style>.st1{fill:#fff}</style><path id="aktiv_mit_Ecke" d="M16 32H6c-3.3 0-6-2.7-6-6V6c0-3.3 2.7-6 6-6h20c3.3 0 6 2.7 6 6v10L16 32z" style="fill:#f48939"/><g id="Icons"><path d="M20.306 17.876v.918H3.449v-.918a2.763 2.763 0 0 1 2.757-2.755H17.55a2.763 2.763 0 0 1 2.756 2.755zM18.808 20.129v5.344a2.763 2.763 0 0 1-2.756 2.755H7.7a2.763 2.763 0 0 1-2.757-2.755v-5.344h13.865z" class="st1"/><path d="M13.192 13.122h4.358a4.76 4.76 0 0 1 4.756 4.754v.224H24.3a2.763 2.763 0 0 0 2.757-2.754v-5.341H13.192v3.117zM25.794 5H14.45a2.763 2.763 0 0 0-2.756 2.755v.915h16.857v-.918A2.765 2.765 0 0 0 25.794 5z" class="st1"/></g><path id="Ecke" d="M16 16v16h10c3.3 0 6-2.7 6-6V16H16z" class="st1"/><path d="m28.8 24.1-4.6-4.6c-.1-.1-.3-.1-.5 0L19.1 24c-.1.1-.1.3 0 .5.1.1.1.1.2.1h.7v3.7c0 .3.2.5.5.5h6.8c.3 0 .5-.2.5-.5v-3.7h.8c.2 0 .3-.1.3-.3 0-.1 0-.2-.1-.2z" style="fill:#a35b21"/></svg>