<svg xmlns="http://www.w3.org/2000/svg" xml:space="preserve" id="Ebene_1" x="0" y="0" style="enable-background:new 0 0 32 32" version="1.1" viewBox="0 0 32 32"><style>.st1{fill:#fff}</style><g id="Ebene_2_00000026129736273566852820000005063945885500228999_"><path id="deaktiviert_mit_Ecke" d="M16 32H6a6.018 6.018 0 0 1-6-6V6a6.018 6.018 0 0 1 6-6h20c3.31.01 5.99 2.69 6 6v10.011L16 32z" style="fill:#afadac"/><g id="Icons"><path d="M20.306 17.876v.918H3.449v-.918a2.763 2.763 0 0 1 2.757-2.755H17.55a2.763 2.763 0 0 1 2.756 2.755zM18.808 20.129v5.344a2.763 2.763 0 0 1-2.756 2.755H7.7a2.763 2.763 0 0 1-2.757-2.755v-5.344h13.865z" class="st1"/><path d="M13.192 13.122h4.358a4.76 4.76 0 0 1 4.756 4.754v.224H24.3a2.763 2.763 0 0 0 2.757-2.754v-5.341H13.192v3.117zM25.794 5H14.45a2.763 2.763 0 0 0-2.756 2.755v.915h16.857v-.918A2.765 2.765 0 0 0 25.794 5z" class="st1"/></g><path id="Ecke" d="M16 16v16h10a6.018 6.018 0 0 0 6-6V16H16z" class="st1"/><path id="Found" d="M29.866 21.262a.7.7 0 0 1-.212.514l-5.48 5.477-1.029 1.028a.733.733 0 0 1-1.03 0l-1.029-1.028-2.74-2.739a.728.728 0 0 1 0-1.028l1.029-1.029a.733.733 0 0 1 1.03 0l2.225 2.231 4.97-4.969a.733.733 0 0 1 1.03 0l1.029 1.028a.7.7 0 0 1 .207.515z" style="fill:#51b70f"/></g><path id="Archiviert" d="M29.039.84.84 29.039a6.051 6.051 0 0 0 2.121 2.121l28.2-28.2A6.043 6.043 0 0 0 29.039.84z" style="fill:#6b6c6d"/></svg>