<svg xmlns="http://www.w3.org/2000/svg" xml:space="preserve" id="Ebene_1" x="0" y="0" style="enable-background:new 0 0 32 32" version="1.1" viewBox="0 0 32 32"><style>.st1{fill:#fff}</style><g id="Ebene_2_00000138560414028384981510000010520699382018246067_"><path id="deaktiviert" d="M6 0h20a6 6 0 0 1 6 6v20a6 6 0 0 1-6 6H6a6 6 0 0 1-6-6V6a6 6 0 0 1 6-6z" style="fill:#afadac"/><g id="Icons"><path d="M20.306 17.876v.918H3.449v-.918a2.763 2.763 0 0 1 2.757-2.755H17.55a2.763 2.763 0 0 1 2.756 2.755zM18.808 20.129v5.344a2.763 2.763 0 0 1-2.756 2.755H7.7a2.763 2.763 0 0 1-2.757-2.755v-5.344h13.865z" class="st1"/><path d="M13.192 13.122h4.358a4.76 4.76 0 0 1 4.756 4.754v.224H24.3a2.763 2.763 0 0 0 2.757-2.754v-5.341H13.192v3.117zM25.794 5H14.45a2.763 2.763 0 0 0-2.756 2.755v.915h16.857v-.918A2.765 2.765 0 0 0 25.794 5z" class="st1"/></g></g><path id="Archiviert" d="M29.039.84.84 29.039a6.051 6.051 0 0 0 2.121 2.121l28.2-28.2A6.043 6.043 0 0 0 29.039.84z" style="fill:#6b6c6d"/></svg>