<svg xmlns="http://www.w3.org/2000/svg" xml:space="preserve" style="enable-background:new 0 0 32 32" viewBox="0 0 32 32"><path d="M26 32H6c-3.3 0-6-2.7-6-6V6c0-3.3 2.7-6 6-6h20c3.3 0 6 2.7 6 6v20c0 3.3-2.7 6-6 6z" style="fill:#2a8fd3"/><path d="M6.465 14.903c.643 0 1.238.199 1.731.538l.001-.001s.72.49 1.494 1.021V9.575h7.056c-.531-.774-1.021-1.494-1.021-1.494l.001-.001a3.057 3.057 0 1 1 5.038 0l.001.001s-.49.72-1.021 1.494h6.886v6.902c-.783-.537-1.517-1.036-1.517-1.036l-.001.001a3.057 3.057 0 1 0 0 5.038l.001.001s.734-.499 1.517-1.036v7.072H9.69V19.46c-.774.531-1.494 1.021-1.494 1.021v-.001a3.057 3.057 0 1 1-1.731-5.577z" style="fill:#fff"/></svg>