<svg xmlns="http://www.w3.org/2000/svg" xml:space="preserve" id="Ebene_1" x="0" y="0" style="enable-background:new 0 0 32 32" version="1.1" viewBox="0 0 32 32"><style>.st1{fill:#fff}</style><path d="M16 32H6c-3.3 0-6-2.7-6-6V6c0-3.3 2.7-6 6-6h20c3.3 0 6 2.7 6 6v10.011L16 32z" style="fill:#afadac"/><path d="M6.465 14.903c.643 0 1.238.199 1.731.538l.001-.001s.72.49 1.494 1.021V9.575h7.056c-.531-.774-1.021-1.494-1.021-1.494l.001-.001a3.057 3.057 0 1 1 5.038 0l.001.001s-.49.72-1.021 1.494h6.886v16.941H9.69V19.46c-.774.531-1.494 1.021-1.494 1.021v-.001a3.057 3.057 0 1 1-1.731-5.577z" class="st1"/><path d="M16 16v16h10c3.3 0 6-2.7 6-6V16H16z" class="st1"/><path d="M29.866 21.262a.7.7 0 0 1-.212.514l-5.48 5.477-1.029 1.029c-.141.141-.313.212-.515.212s-.373-.071-.515-.212l-1.029-1.029-2.74-2.738c-.141-.141-.212-.313-.212-.514s.071-.373.212-.514l1.029-1.029c.141-.141.313-.212.515-.212s.373.071.515.212l2.225 2.231 4.965-4.97c.141-.141.313-.212.515-.212s.373.071.515.212l1.029 1.029a.696.696 0 0 1 .212.514z" style="fill:#51b70f"/></svg>