<svg xmlns="http://www.w3.org/2000/svg" xml:space="preserve" id="Ebene_1" x="0" y="0" style="enable-background:new 0 0 32 32" version="1.1" viewBox="0 0 32 32"><style>.st1{fill:#fff}</style><path d="M0 6c0-3.3 2.7-6 6-6h20c3.3 0 6 2.7 6 6v10L16 32H6c-3.3 0-6-2.7-6-6" style="fill:#afadac"/><path d="M6.465 14.903c.643 0 1.238.199 1.731.538l.001-.001s.72.49 1.494 1.021V9.575h7.056c-.531-.774-1.021-1.494-1.021-1.494l.001-.001a3.057 3.057 0 1 1 5.038 0l.001.001s-.49.72-1.021 1.494h6.886v16.941H9.69V19.46c-.774.531-1.494 1.021-1.494 1.021v-.001a3.057 3.057 0 1 1-1.731-5.577z" class="st1"/><path d="M16 16v16h10c3.3 0 6-2.7 6-6V16H16z" class="st1"/><path d="m24 19.4-5.2 9h10.4z" style="fill:#ff332e"/><path id="Archiviert" d="M29.039.84.84 29.039a6.051 6.051 0 0 0 2.121 2.121l28.2-28.2A6.043 6.043 0 0 0 29.039.84z" style="fill:#6b6c6d"/></svg>