<svg xmlns="http://www.w3.org/2000/svg" xml:space="preserve" id="Ebene_1" x="0" y="0" style="enable-background:new 0 0 32 32" version="1.1" viewBox="0 0 32 32"><style>.st1{fill:#fff}</style><g id="Ebene_2_00000071521554365272836770000001948264057820344221_"><path id="deaktiviert" d="M6 0h20c3.3 0 6 2.7 6 6v20c0 3.3-2.7 6-6 6H6c-3.3 0-6-2.7-6-6V6c0-3.3 2.7-6 6-6z" style="fill:#afadac"/><g id="Icons"><path d="M29 12.4v1H3v-1c0-1.7 1.3-3 3-3h20c1.7 0 3 1.3 3 3zM27.3 14.9v5.8c0 1.7-1.3 3-3 3H7.7c-1.7 0-3-1.3-3-3v-5.8h22.6z" class="st1"/></g></g></svg>