<svg xmlns="http://www.w3.org/2000/svg" xml:space="preserve" id="Ebene_1" x="0" y="0" style="enable-background:new 0 0 32 32" version="1.1" viewBox="0 0 32 32"><style>.st1{fill:#fff}</style><path id="deaktiviert_mit_Ecke" d="M16 32H6c-3.3 0-6-2.7-6-6V6c0-3.3 2.7-6 6-6h20c3.3 0 6 2.7 6 6v10L16 32z" style="fill:#afadac"/><path id="Icons_Rätsel_spezial" d="M17.9 10.5c0-1.3-1-2-2.4-2-1.3 0-2.5.6-3.3 1.5L9.5 7.5c1.6-1.8 3.9-2.9 6.3-2.9 3.7 0 6.6 1.7 6.6 5.3 0 4.3-6.4 3.2-6 6.9l-3.1 1.7c-.6-4.4 4.6-5.6 4.6-8zm-5.5 13.4c-.1-1.7 1.3-3.2 3-3.2h.2c1.7-.1 3.2 1.3 3.2 3v.2c0 1.8-1.5 3.2-3.2 3.2s-3.2-1.4-3.2-3.2z" class="st1"/><path id="Ecke" d="M16 16v16h10c3.3 0 6-2.7 6-6V16H16z" class="st1"/><path d="M23.987 19.407 18.795 28.4h10.384z" style="fill:#ff332e"/><path id="Archiviert" d="M29.039.84.84 29.039a6.051 6.051 0 0 0 2.121 2.121l28.2-28.2A6.043 6.043 0 0 0 29.039.84z" style="fill:#6b6c6d"/></svg>