<svg xmlns="http://www.w3.org/2000/svg" xml:space="preserve" style="enable-background:new 0 0 32 32" viewBox="0 0 32 32"><path d="M6 0h20c3.3 0 6 2.7 6 6v20c0 3.3-2.7 6-6 6H6c-3.3 0-6-2.7-6-6V6c0-3.3 2.7-6 6-6z" style="fill:#afadac"/><path d="M17.9 10.5c0-1.3-1-2-2.4-2-1.3 0-2.5.6-3.3 1.5L9.5 7.5c1.6-1.8 3.9-2.9 6.3-2.9 3.7 0 6.6 1.7 6.6 5.3 0 4.3-6.4 3.2-6 6.9l-3.1 1.7c-.6-4.4 4.6-5.6 4.6-8zm-5.5 13.4c-.1-1.7 1.3-3.2 3-3.2h.2c1.7-.1 3.2 1.3 3.2 3v.2c0 1.8-1.5 3.2-3.2 3.2s-3.2-1.4-3.2-3.2z" style="fill:#fff"/><path d="M29.039.84.84 29.039a6.051 6.051 0 0 0 2.121 2.121l28.2-28.2A6.043 6.043 0 0 0 29.039.84z" style="fill:#6b6c6d"/></svg>