<svg xmlns="http://www.w3.org/2000/svg" xml:space="preserve" id="Ebene_1" x="0" y="0" style="enable-background:new 0 0 32 32" version="1.1" viewBox="0 0 32 32"><style>.st1{fill:#fff}</style><path id="aktiv_mit_Ecke" d="M16 32H6c-3.3 0-6-2.7-6-6V6c0-3.3 2.7-6 6-6h20c3.3 0 6 2.7 6 6v10L16 32z" style="fill:#31a5a8"/><path id="Icons_Rätsel_spezial" d="M17.9 10.5c0-1.3-1-2-2.4-2-1.3 0-2.5.6-3.3 1.5L9.5 7.5c1.6-1.8 3.9-2.9 6.3-2.9 3.7 0 6.6 1.7 6.6 5.3 0 4.3-5.3 4.8-4.9 8.6h-4.2c-.6-4.4 4.6-5.6 4.6-8zm-5.5 13.4c-.1-1.7 1.3-3.2 3-3.2h.2c1.7-.1 3.2 1.3 3.2 3v.2c0 1.8-1.5 3.2-3.2 3.2s-3.2-1.4-3.2-3.2z" class="st1"/><path id="Ecke" d="M16 16v16h10c3.3 0 6-2.7 6-6V16H16z" class="st1"/><path d="m28.8 24.1-4.6-4.6c-.1-.1-.3-.1-.5 0L19.1 24c-.1.1-.1.3 0 .5.1.1.1.1.2.1h.7v3.7c0 .3.2.5.5.5h6.8c.3 0 .5-.2.5-.5v-3.7h.8c.2 0 .3-.1.3-.3 0-.1 0-.2-.1-.2z" style="fill:#a35b21"/></svg>