<svg xmlns="http://www.w3.org/2000/svg" xml:space="preserve" id="Ebene_1" x="0" y="0" style="enable-background:new 0 0 32 32" version="1.1" viewBox="0 0 32 32"><style>.st1{fill:#fff}</style><path d="M16 32H6c-3.3 0-6-2.7-6-6V6c0-3.3 2.7-6 6-6h20c3.3 0 6 2.7 6 6v10L16 32z" style="fill:#afadac"/><path d="M16.52 3.123a6.42 6.42 0 0 0-6.42 6.42c0 1.852.789 3.516 2.043 4.688l4.378-4.376 4.378 4.376a6.398 6.398 0 0 0 2.043-4.688 6.423 6.423 0 0 0-6.422-6.42z" class="st1"/><path d="m24.054 19.956-7.36-7.358-7.36 7.358h4.284c0 1.709.008 1.58 0 2.348-.031 2.822-.017 4.822-5.847 1.728 0 0 1.233 4.781 6.811 4.887 5.731.109 5.316-6.578 5.437-8.964l4.035.001z" class="st1"/><path d="M16 16v16h10c3.3 0 6-2.7 6-6V16H16z" class="st1"/><path d="m24 19.4-5.2 9h10.4z" style="fill:#ff332e"/><path id="Archiviert" d="M29.039.84.84 29.039a6.051 6.051 0 0 0 2.121 2.121l28.2-28.2A6.043 6.043 0 0 0 29.039.84z" style="fill:#6b6c6d"/></svg>