<svg xmlns="http://www.w3.org/2000/svg" xml:space="preserve" id="Ebene_1" x="0" y="0" style="enable-background:new 0 0 23 15" version="1.1" viewBox="0 0 23 15"><style>.st2{fill:#ad1519;stroke-linejoin:round}.st2,.st3{stroke:#000;stroke-width:.0079}.st3,.st4,.st5{fill:#c8b100}.st5{stroke:#000;stroke-width:.0091}.st6{fill:none}.st10,.st6,.st7,.st8,.st9{stroke:#000;stroke-width:.0079}.st7{fill:#c8b100;stroke-linejoin:round}.st10,.st8,.st9{fill:#ad1519}.st10,.st9{fill:#058e6e}.st10{fill:#fff}.st11,.st12,.st13,.st14{fill:none;stroke:#000;stroke-width:3.033150e-04}.st12,.st13,.st14{stroke-width:6.066300e-04}.st13,.st14{stroke-width:9.099451e-04}.st14{stroke-width:.0012}.st15,.st16,.st17,.st18{fill:none;stroke:#000;stroke-width:.0015}.st16,.st17,.st18{stroke-width:.0018}.st17,.st18{stroke-width:.0021}.st18{stroke-width:.0024}.st19,.st20,.st21,.st22{fill:none;stroke:#000;stroke-width:.0027}.st20,.st21,.st22{stroke-width:.003}.st21,.st22{stroke-width:.0033}.st22{stroke-width:.0036}.st23,.st24,.st25,.st26{fill:none;stroke:#000;stroke-width:.0039}.st24,.st25,.st26{stroke-width:.0042}.st25,.st26{stroke-width:.0045}.st26{stroke-width:.0055}.st27,.st28{fill:#005bbf;stroke:#000;stroke-width:.0118}.st28{fill:#ccc}.st29{stroke-linejoin:round}.st29,.st30,.st31,.st32,.st33{fill:#c8b100;stroke:#000;stroke-width:.0118}.st31,.st32,.st33{fill:none}.st32,.st33{fill:#ad1519}.st33{stroke-linejoin:round}.st35{fill:none;stroke:#000;stroke-width:.0079;stroke-linecap:round}.st36,.st37,.st39,.st54{fill:none;stroke:#000;stroke-width:.0064}.st37,.st39,.st54{fill:#fff}.st39,.st54{stroke-width:.0118}.st54{fill:#058e6e}.st55,.st57,.st58,.st59,.st60,.st62{fill:#ccc;stroke:#000;stroke-width:.0158}.st57,.st58,.st59,.st60,.st62{fill:#058e6e}.st58,.st59,.st60,.st62{fill:#ad1519}.st59,.st60,.st62{fill:#c8b100}.st60,.st62{stroke:#c8b100;stroke-width:.0079}.st62{stroke:#000;stroke-width:.014}.st63{fill:#0039f0}.st64{fill:#db4446;stroke:#000;stroke-width:.0118}.st66,.st67{stroke:#000;stroke-width:.0079}.st67{stroke-width:.0015}.st70{stroke-linejoin:round}.st70,.st71{fill:#c8b100;stroke:#000;stroke-width:.0103}</style><path d="M0 0h23v15H0z" style="fill:#c60b1e"/><path d="M0 3.75h23v7.5H0z" style="fill:#ffc400"/><g id="coa"><g id="supporters"><g id="crown_left"><path d="M5.152 6.667s-.016 0-.024-.005c-.009-.004-.035-.028-.035-.028l-.021-.015-.019-.026s-.022-.035-.012-.063a.078.078 0 0 1 .044-.045c.015-.007.048-.017.048-.017s.026-.011.035-.013l.04-.01.017-.008c.009-.003.021-.003.028-.005.007-.002.024-.007.035-.008.016-.001.042.003.05.003l.05.002.067-.003c.012 0 .021-.002.035 0a.25.25 0 0 1 .045.013l.064.023c.015.004.053.011.071.019a.097.097 0 0 1 .036.033c.009.011.01.023.014.031a.062.062 0 0 1 0 .033.175.175 0 0 1-.015.025l-.019.031-.025.019s-.017.016-.031.014c-.014-.001-.154-.026-.244-.026s-.235.026-.234.026z" class="st2"/><ellipse cx="5.387" cy="6.47" class="st3" rx=".042" ry=".075"/><ellipse cx="5.388" cy="6.47" class="st3" rx=".02" ry=".069"/><ellipse cx="5.388" cy="6.391" class="st4" rx=".029" ry=".026"/><path d="M5.427 6.382V6.4h-.078v-.018h.029v-.04h-.019v-.017h.019v-.017h.018v.017h.019v.017h-.019v.04h.031" class="st5"/><path d="M5.395 6.366c.016.004.025.018.02.032-.004.014-.02.022-.035.018-.015-.004-.024-.018-.02-.032a.026.026 0 0 1 .02-.018" class="st6"/><path d="M5.388 6.662H5.24l-.003-.035-.007-.037-.007-.046c-.041-.052-.079-.087-.091-.079.003-.01.007-.017.014-.021.036-.021.111.029.167.112l.014.023h.122l.014-.023c.056-.083.131-.133.167-.112.008.004.011.012.014.021-.013-.007-.05.027-.091.079l-.007.046-.007.037-.003.035h-.148z" class="st3"/><path d="M5.138 6.463c.028-.016.093.034.145.112m.354-.112c-.027-.016-.092.034-.145.112" class="st6"/><g id="crown_pt1"><path d="M5.17 6.727c-.006-.017-.018-.032-.018-.032a.9.9 0 0 1 .235-.028c.092 0 .176.011.236.028l-.016.027a.386.386 0 0 0-.012.025.738.738 0 0 0-.208-.025.695.695 0 0 0-.21.026l-.007-.021" class="st3"/><path d="M5.387 6.802a.915.915 0 0 0 .187-.019c.02-.006.032-.015.03-.025-.001-.005-.005-.009-.011-.012a.785.785 0 0 0-.206-.024.78.78 0 0 0-.206.024c-.006.003-.01.007-.011.012-.002.01.01.019.03.025.03.007.113.019.187.019zM5.627 6.662l-.018-.015s-.017.01-.039.007c-.022-.004-.029-.029-.029-.029s-.024.02-.044.019c-.02-.002-.033-.019-.033-.019s-.022.015-.041.013c-.019-.001-.037-.024-.037-.024s-.019.024-.038.025c-.019.002-.035-.016-.035-.016s-.009.018-.033.022-.045-.019-.045-.019-.014.022-.03.028c-.017.005-.038-.008-.038-.008l-.006.013c-.002.005-.01.006-.01.006l.006.014c.059-.017.14-.027.231-.027s.174.01.233.028l.006-.018z" class="st3"/><path d="m5.388 6.585.009.002c-.002.003-.002.006-.002.011 0 .017.015.031.034.031a.035.035 0 0 0 .033-.022s.003-.011.005-.011l.002.012c.001.016.015.027.032.027.019 0 .034-.014.034-.032v-.004l.011-.011.006.013c-.003.005-.003.01-.003.015 0 .017.014.03.033.03a.034.034 0 0 0 .027-.013l.007-.009v.011c0 .01.004.02.015.021 0 0 .012.001.028-.011a.156.156 0 0 0 .025-.023l.001.013s-.016.025-.03.033c-.008.004-.02.009-.029.007a.03.03 0 0 1-.021-.018.06.06 0 0 1-.026.007.05.05 0 0 1-.044-.026.046.046 0 0 1-.035.015.053.053 0 0 1-.039-.017.046.046 0 0 1-.033.012.05.05 0 0 1-.041-.021.047.047 0 0 1-.041.021.047.047 0 0 1-.033-.013.05.05 0 0 1-.074.003.048.048 0 0 1-.044.026.04.04 0 0 1-.024-.007c-.004.009-.011.017-.021.018-.009.002-.021-.003-.029-.007-.014-.008-.031-.033-.031-.033l.002-.013s.009.01.025.023.028.011.028.011c.01-.001.015-.011.015-.021v-.011l.007.009a.034.034 0 0 0 .027.013c.018 0 .033-.013.033-.03a.032.032 0 0 0-.003-.014l.006-.013.01.01v.004c0 .018.015.032.034.032.017 0 .032-.011.034-.027l.001-.012c.002 0 .004.012.005.011a.033.033 0 0 0 .032.022c.019 0 .034-.014.034-.031 0-.004 0-.008-.002-.011l.01-.002z" class="st3"/><path d="M5.387 6.667a.9.9 0 0 0-.235.028c-.004.001-.009-.002-.01-.005-.001-.004.001-.008.005-.01.06-.018.145-.029.24-.029s.18.011.24.029a.009.009 0 0 1 .006.01c-.001.003-.006.006-.01.005a.902.902 0 0 0-.236-.028z" class="st7"/><path d="m5.073 6.63-.02-.022a.088.088 0 0 0-.021-.01c0-.002.009-.008.018-.008.006 0 .011.002.014.006l.001-.006s.007.002.011.01c.004.008.001.021.001.021s-.001.006-.004.009zM5.131 6.607l-.003.02-.043.004-.007-.004.002-.007.033-.026.018.013" class="st3"/><path d="M5.074 6.622c.003-.003.011-.002.016.002.006.004.007.011.004.015-.004.004-.011.003-.017-.002-.005-.004-.007-.011-.003-.015zM5.153 6.626c-.002-.005 0-.011.004-.013.004-.001.009.003.011.008.002.006 0 .011-.004.013s-.009-.002-.011-.008zM5.173 6.601l.016.014.037-.02.003-.006-.006-.005-.043-.003-.007.02" class="st3"/><path d="m5.216 6.533-.021.019.026.034.007.003.005-.005.009-.041-.026-.01" class="st3"/><path d="m5.286 6.579-.008.019-.043-.004-.006-.005.003-.007.038-.019.016.016" class="st3"/><ellipse cx="5.229" cy="6.589" class="st3" rx=".015" ry=".014"/><path d="M5.301 6.598c-.001-.005.002-.011.007-.011.004-.001.009.004.009.01.001.006-.002.011-.006.011-.005.001-.009-.004-.01-.01zM5.329 6.577l.012.017.041-.013.004-.005-.004-.006-.04-.011-.013.018" class="st3"/><path d="m5.387 6.514-.026.016.02.041.007.004.007-.004.02-.041-.028-.016" class="st3"/><path d="m5.445 6.577-.012.017-.041-.012-.004-.006.004-.006.041-.012.012.019" class="st3"/><ellipse cx="5.387" cy="6.576" class="st3" rx=".015" ry=".014"/><path d="M5.474 6.598c.001-.006-.002-.011-.007-.012-.004-.001-.009.004-.009.01-.001.006.002.012.006.012.005.001.009-.004.01-.01zM5.489 6.579l.008.019.043-.004.006-.005-.004-.006-.037-.02-.016.016" class="st3"/><path d="m5.559 6.533.021.019-.027.034-.007.003-.005-.006-.009-.041.027-.009" class="st3"/><path d="m5.602 6.601-.015.015-.037-.02-.004-.007.006-.005.043-.004.007.021" class="st3"/><ellipse cx="5.546" cy="6.589" class="st3" rx=".015" ry=".014"/><path d="M5.622 6.626c.002-.005 0-.011-.004-.013-.004 0-.009.003-.011.009-.002.006 0 .011.004.013.004.001.009-.003.011-.009zM5.696 6.63l.02-.022a.088.088 0 0 1 .021-.01c0-.002-.009-.008-.018-.008-.006 0-.011.002-.014.006l-.001-.006s-.007.002-.011.01c-.004.008-.001.021-.001.021s.001.006.004.009zM5.638 6.607l.003.02.043.004.006-.004-.001-.007-.032-.026-.019.013" class="st3"/><path d="M5.696 6.622c-.003-.003-.011-.002-.016.002-.006.005-.008.012-.004.015.004.004.011.003.017-.002.005-.004.007-.011.003-.015z" class="st3"/></g><g id="crown_pt2"><path d="m5.154 6.729.01-.015.02.004-.013.017-.017-.006" class="st8"/><path d="m5.239 6.714-.021.004c-.005 0-.01-.003-.011-.008-.001-.005.003-.01.008-.011l.021-.003.022-.003c.006-.001.011.003.011.007.001.006-.003.01-.008.011l-.022.003" class="st9"/><ellipse cx="5.311" cy="6.699" class="st10" rx=".013" ry=".012"/><path d="M5.388 6.704h-.029c-.006 0-.01-.004-.01-.009 0-.005.004-.009.01-.009h.06c.006 0 .01.004.01.009 0 .005-.005.009-.01.009h-.031" class="st8"/><ellipse cx="5.464" cy="6.699" class="st10" rx=".013" ry=".012"/><path d="m5.535 6.714.021.003c.006.001.011-.002.012-.007.001-.005-.003-.01-.008-.011l-.022-.003-.021-.003c-.006-.001-.011.003-.012.007-.001.006.003.01.009.011l.021.003" class="st9"/><path d="m5.619 6.73-.007-.016-.021.002.01.018.018-.004" class="st8"/><path d="M5.387 6.785a.873.873 0 0 1-.193-.019.813.813 0 0 1 .193-.021c.075 0 .143.008.194.021a.883.883 0 0 1-.194.019z" class="st2"/><path d="M5.422 6.782v-.034m-.018.036v-.037m-.013.037v-.038" class="st11"/><path d="M5.38 6.784v-.038" class="st12"/><path d="M5.369 6.784v-.038" class="st13"/><path d="M5.36 6.784v-.038M5.349 6.784v-.038" class="st14"/><path d="M5.341 6.784v-.038" class="st15"/><path d="M5.324 6.782v-.035m.008.036v-.036" class="st16"/><path d="M5.308 6.781v-.032m.008.033v-.034" class="st17"/><path d="M5.288 6.779v-.028m.007.028V6.75m.007.031V6.75" class="st18"/><path d="M5.28 6.779v-.027" class="st19"/><path d="M5.274 6.778v-.026" class="st20"/><path d="M5.266 6.777v-.024" class="st21"/><path d="M5.251 6.775v-.019m.008.02v-.021M5.244 6.773v-.016" class="st22"/><path d="M5.237 6.772v-.014" class="st23"/><path d="M5.229 6.77v-.011" class="st24"/><path d="M5.221 6.769v-.008" class="st25"/><path d="M5.213 6.767v-.004" class="st26"/></g></g><g id="pillar_left"><path d="M5.866 9.92a.274.274 0 0 1-.121-.026.272.272 0 0 0-.118-.024.284.284 0 0 0-.12.025.28.28 0 0 1-.12.025.27.27 0 0 1-.121-.027.282.282 0 0 0-.116-.023.269.269 0 0 0-.118.024.27.27 0 0 1-.121.026v.072a.27.27 0 0 0 .121-.026.272.272 0 0 1 .118-.024c.044 0 .086.009.116.024a.27.27 0 0 0 .121.027c.047 0 .089-.01.12-.026a.27.27 0 0 1 .12-.025c.046 0 .088.01.118.025a.266.266 0 0 0 .12.026l.001-.073z" class="st27"/><path d="M5.866 9.993a.274.274 0 0 1-.121-.026.258.258 0 0 0-.118-.025.284.284 0 0 0-.12.025.27.27 0 0 1-.12.026.27.27 0 0 1-.121-.027.266.266 0 0 0-.116-.024.255.255 0 0 0-.118.025.285.285 0 0 1-.121.026v.072a.27.27 0 0 0 .121-.026.26.26 0 0 1 .118-.025c.044 0 .086.009.116.024a.267.267 0 0 0 .121.027c.047 0 .089-.01.12-.026a.27.27 0 0 1 .12-.025c.046 0 .088.01.118.025a.266.266 0 0 0 .12.026l.001-.072" class="st28"/><path d="M5.866 10.065a.274.274 0 0 1-.121-.026.26.26 0 0 0-.118-.025.284.284 0 0 0-.12.025.27.27 0 0 1-.12.026.27.27 0 0 1-.121-.027.269.269 0 0 0-.116-.024.255.255 0 0 0-.118.025.27.27 0 0 1-.121.026v.072a.27.27 0 0 0 .121-.026.275.275 0 0 1 .118-.024c.044 0 .086.009.116.024a.267.267 0 0 0 .121.027c.047 0 .089-.01.12-.026a.27.27 0 0 1 .12-.025c.046 0 .088.009.118.025a.266.266 0 0 0 .12.026l.001-.073" class="st27"/><path d="M5.865 10.21a.266.266 0 0 1-.12-.026.275.275 0 0 0-.118-.025.27.27 0 0 0-.12.025.27.27 0 0 1-.12.026.27.27 0 0 1-.121-.027.269.269 0 0 0-.116-.024.269.269 0 0 0-.118.024.27.27 0 0 1-.121.026v-.072a.27.27 0 0 0 .121-.027.275.275 0 0 1 .118-.024c.044 0 .086.009.116.024a.267.267 0 0 0 .121.027c.047 0 .089-.01.12-.026a.27.27 0 0 1 .12-.025c.046 0 .088.009.118.025a.268.268 0 0 0 .121.026l-.001.073" class="st28"/><path d="M5.865 10.282a.266.266 0 0 1-.12-.026.26.26 0 0 0-.118-.025.284.284 0 0 0-.12.025.27.27 0 0 1-.12.026.27.27 0 0 1-.121-.027.269.269 0 0 0-.116-.024.255.255 0 0 0-.118.025.27.27 0 0 1-.121.026v-.072a.27.27 0 0 0 .121-.027.261.261 0 0 1 .118-.024c.044 0 .086.009.116.024a.267.267 0 0 0 .121.027c.047 0 .089-.01.12-.026a.27.27 0 0 1 .12-.025c.046 0 .088.009.118.025a.27.27 0 0 0 .121.026l-.001.072z" class="st27"/><path d="M5.119 9.623c.001.007.004.012.004.019 0 .044-.039.079-.086.079h.703c-.048 0-.086-.035-.086-.079l.003-.019c-.004.002-.009.002-.014.002h-.512c-.004 0-.008 0-.012-.002z" class="st29"/><path d="M5.131 9.578h.512c.017 0 .031.011.031.023s-.013.024-.031.024h-.512c-.017 0-.031-.011-.031-.024s.014-.023.031-.023zM5.038 9.896h.701v-.175h-.701v.175z" class="st30"/><path d="M5.138 9.55h.498V7.161h-.498V9.55z" class="st28"/><path d="M5.493 7.164v2.384m.056-2.384v2.384" class="st31"/><path d="M5.047 6.971h.684v-.175h-.684v.175z" class="st30"/><path d="M5.119 7.088c.004-.002.007-.002.013-.002h.512l.014.002c-.018-.006-.03-.021-.03-.04s.014-.034.032-.04a.055.055 0 0 1-.016.003h-.513c-.005 0-.01 0-.014-.002l.003.001a.04.04 0 0 1 .029.039.043.043 0 0 1-.03.039z" class="st29"/><path d="M5.131 7.086h.512c.017 0 .031.011.031.023 0 .013-.014.024-.031.024h-.512c-.017 0-.031-.01-.031-.024 0-.013.014-.023.031-.023zM5.131 6.971h.512c.017 0 .032.009.032.02 0 .011-.014.02-.032.02h-.512c-.017 0-.031-.009-.031-.02 0-.011.014-.02.031-.02z" class="st30"/></g><g id="ribbon_left"><path d="M4.983 8.959c-.07.039-.117.079-.109.099.004.018.026.032.057.052.05.034.08.094.056.122a.17.17 0 0 0-.004-.273z" class="st32"/><path d="M6.146 8.054a1.626 1.626 0 0 0-.506-.083c-.073 0-.155.007-.239.021-.298.049-.525.165-.507.26l.002.008s-.112-.246-.113-.256c-.02-.105.232-.235.563-.289a1.7 1.7 0 0 1 .292-.022c.212 0 .396.027.507.067l.001.294" class="st33"/><path d="M5.137 8.354c-.138-.01-.232-.046-.243-.102-.009-.045.038-.095.122-.14.037.004.079.008.122.008l-.001.234M5.637 8.171a.415.415 0 0 1 .183.06l.003.005c.015.031-.06.097-.187.17l.001-.235" class="st32"/><path d="M4.828 8.815c-.014-.039.121-.116.312-.184.087-.031.159-.062.248-.101.265-.115.46-.246.436-.294l-.003-.005c.014.011.036.247.036.247.024.044-.155.173-.399.287a4.366 4.366 0 0 1-.32.123c-.139.048-.277.137-.264.17l-.046-.243z" class="st33"/></g><g id="crown_right"><path d="M9.962 6.613s-.023.023-.039.027c-.016.002-.037-.015-.037-.015s-.015.015-.033.019c-.018.004-.043-.02-.043-.02s-.017.024-.033.03c-.016.005-.035-.008-.035-.008s-.007.012-.02.018c-.006.003-.015-.001-.015-.001l-.018-.011-.021-.022-.019-.007-.01-.032-.002-.017c-.004-.02.027-.042.071-.052a.135.135 0 0 1 .063-.001.17.17 0 0 1 .098-.025c.04 0 .074.008.093.021a.175.175 0 0 1 .093-.021c.044 0 .08.01.098.025a.123.123 0 0 1 .063.001c.044.01.075.032.071.052l-.002.017a.689.689 0 0 1-.01.032l-.019.007-.021.022-.018.011s-.009.004-.015.002a.05.05 0 0 1-.02-.018s-.019.013-.035.007c-.016-.006-.033-.03-.033-.03s-.025.024-.044.02c-.018-.004-.033-.019-.033-.019s-.021.018-.037.015c-.016-.004-.038-.027-.038-.027z" style="fill:#ad1519;stroke:#000;stroke-width:.0082"/><ellipse cx="9.961" cy="6.486" class="st3" rx=".042" ry=".059"/><ellipse cx="9.962" cy="6.486" class="st3" rx=".019" ry=".054"/><ellipse cx="9.962" cy="6.418" class="st4" rx=".029" ry=".026"/><path d="M10.001 6.409v.017h-.077v-.017h.029V6.37h-.019v-.017h.019v-.018h.019v.017h.018v.018h-.019v.039h.03" class="st5"/><path d="M9.97 6.394c.015.004.024.019.019.033-.005.014-.021.021-.036.017s-.023-.019-.019-.033c.003-.009.01-.015.02-.018" class="st6"/><path d="M9.642 6.6a.088.088 0 0 1-.007-.033.086.086 0 0 1 .129-.075" class="st35"/><path d="M9.797 6.538c-.004-.008-.009-.016-.009-.025 0-.035.036-.062.081-.062.019 0 .037.005.051.014M10.125 6.539a.05.05 0 0 0 .008-.026c0-.035-.036-.062-.081-.062a.092.092 0 0 0-.05.014" class="st6"/><path d="M10.28 6.6a.087.087 0 0 0-.08-.118.085.085 0 0 0-.042.011" class="st35"/><ellipse cx="9.616" cy="6.56" class="st36" rx=".014" ry=".013"/><ellipse cx="9.621" cy="6.513" class="st36" rx=".014" ry=".013"/><ellipse cx="9.653" cy="6.477" class="st36" rx=".014" ry=".013"/><ellipse cx="9.694" cy="6.457" class="st36" rx=".014" ry=".013"/><ellipse cx="9.738" cy="6.459" class="st36" rx=".014" ry=".013"/><ellipse cx="9.765" cy="6.512" class="st37" rx=".014" ry=".013"/><ellipse cx="9.773" cy="6.467" class="st36" rx=".014" ry=".013"/><ellipse cx="9.808" cy="6.439" class="st36" rx=".014" ry=".013"/><ellipse cx="9.851" cy="6.426" class="st36" rx=".014" ry=".013"/><ellipse cx="9.895" cy="6.427" class="st36" rx=".014" ry=".013"/><ellipse cx="10.026" cy="6.427" class="st36" rx=".014" ry=".013"/><ellipse cx="10.071" cy="6.426" class="st36" rx=".014" ry=".013"/><ellipse cx="10.114" cy="6.439" class="st36" rx=".014" ry=".013"/><ellipse cx="10.149" cy="6.467" class="st36" rx=".014" ry=".013"/><ellipse cx="10.156" cy="6.512" class="st37" rx=".014" ry=".013"/><ellipse cx="10.183" cy="6.459" class="st36" rx=".014" ry=".013"/><ellipse cx="10.228" cy="6.457" class="st36" rx=".014" ry=".013"/><ellipse cx="10.269" cy="6.477" class="st36" rx=".014" ry=".013"/><ellipse cx="10.3" cy="6.513" class="st36" rx=".014" ry=".013"/><ellipse cx="10.306" cy="6.56" class="st36" rx=".014" ry=".013"/><g id="crown_pt1_00000031928761592169423450000011693385218190406290_"><path d="M9.744 6.727a.142.142 0 0 0-.017-.032.9.9 0 0 1 .235-.028c.092 0 .176.011.236.028l-.016.027-.012.024a.785.785 0 0 0-.209-.025.695.695 0 0 0-.21.026l-.007-.02" class="st3"/><path d="M9.962 6.802a.915.915 0 0 0 .187-.019c.02-.006.032-.015.03-.025-.001-.005-.006-.009-.011-.011a.785.785 0 0 0-.206-.024.78.78 0 0 0-.206.024.019.019 0 0 0-.012.011c-.002.011.01.019.03.025.031.007.113.019.188.019zM10.201 6.662l-.018-.016s-.017.01-.039.007c-.021-.003-.029-.029-.029-.029s-.024.02-.044.019c-.02-.002-.033-.019-.033-.019s-.021.016-.04.014c-.019-.001-.037-.024-.037-.024s-.02.024-.039.025c-.019.002-.034-.016-.034-.016s-.009.018-.033.022-.045-.019-.045-.019-.014.022-.03.028c-.017.005-.039-.008-.039-.008l-.006.013c-.002.005-.01.006-.01.006l.006.014a.871.871 0 0 1 .231-.027c.091 0 .174.01.233.028l.006-.018z" class="st3"/><path d="m9.962 6.585.009.002c-.002.003-.002.006-.002.011 0 .017.015.031.034.031a.035.035 0 0 0 .033-.022s.003-.011.005-.011l.002.012c.002.016.017.027.034.027.019 0 .034-.014.034-.032v-.004l.011-.011.006.013a.032.032 0 0 0-.003.014c0 .017.014.03.033.03a.034.034 0 0 0 .027-.013l.007-.009v.011c0 .01.004.02.015.021 0 0 .012.001.028-.011a.156.156 0 0 0 .025-.023l.001.013s-.016.025-.03.033c-.008.004-.02.009-.029.007a.03.03 0 0 1-.021-.018.05.05 0 0 1-.069-.019.05.05 0 0 1-.036.015.053.053 0 0 1-.039-.017.05.05 0 0 1-.074-.008.053.053 0 0 1-.042.021.047.047 0 0 1-.033-.013.052.052 0 0 1-.038.017.05.05 0 0 1-.036-.015.048.048 0 0 1-.044.027.04.04 0 0 1-.024-.007c-.004.009-.011.017-.021.018-.009.002-.021-.003-.029-.007a.118.118 0 0 1-.031-.033l.002-.013s.009.01.025.023c.016.012.028.011.028.011.01-.002.015-.011.015-.021v-.011l.007.009a.034.034 0 0 0 .027.013c.018 0 .033-.013.033-.03a.032.032 0 0 0-.003-.014l.006-.013.011.011v.004c0 .018.015.032.034.032.017 0 .032-.011.034-.027l.001-.012c.002 0 .004.012.005.011.002.012.015.021.031.021.019 0 .034-.014.034-.031 0-.004 0-.008-.002-.011l.009-.002z" class="st3"/><path d="M9.962 6.667a.9.9 0 0 0-.235.028c-.004.001-.009-.002-.011-.005-.001-.004.002-.008.006-.01a.878.878 0 0 1 .24-.029c.095 0 .18.011.24.029a.009.009 0 0 1 .006.01c-.001.003-.006.006-.01.005a.913.913 0 0 0-.236-.028z" class="st7"/><path d="m9.648 6.63-.02-.022a.088.088 0 0 0-.021-.01c0-.002.009-.008.018-.008.006 0 .011.002.014.006l.001-.006s.007.002.011.01c.004.009.002.022.002.022l-.005.008zM9.706 6.607l-.003.02-.044.004-.006-.004.001-.007.033-.026.019.013" class="st3"/><path d="M9.648 6.622c.004-.003.011-.002.017.002.005.005.007.012.003.015-.003.004-.011.003-.016-.002-.005-.004-.007-.011-.004-.015zM9.727 6.626c-.002-.005 0-.011.004-.013.004 0 .009.003.011.009.002.006 0 .011-.004.013-.004.001-.009-.003-.011-.009zM9.747 6.601l.016.014.037-.019.003-.006-.005-.006-.043-.003-.008.02" class="st3"/><path d="m9.79 6.533-.02.019.026.034.007.003.005-.005.009-.041-.027-.01" class="st3"/><path d="m9.86 6.579-.008.019-.043-.004-.005-.005.003-.007.037-.019.016.016" class="st3"/><ellipse cx="9.804" cy="6.589" class="st3" rx=".015" ry=".014"/><path d="M9.876 6.598c-.001-.005.002-.011.006-.011.004-.001.009.004.009.01.001.006-.002.011-.006.011-.004.001-.008-.004-.009-.01zM9.904 6.577l.012.017.041-.013.004-.005-.004-.006-.041-.011-.012.018" class="st3"/><path d="m9.961 6.514-.026.016.02.041.007.004.007-.004.02-.041-.028-.016" class="st3"/><path d="m10.019 6.577-.012.017-.041-.012-.004-.006.004-.006.041-.012.012.019" class="st3"/><ellipse cx="9.962" cy="6.576" class="st3" rx=".015" ry=".014"/><path d="M10.049 6.598c.001-.006-.002-.011-.007-.012-.004-.001-.009.004-.009.01-.001.006.002.011.006.011.004.002.009-.003.01-.009zM10.064 6.579l.008.019.043-.004.006-.005-.003-.007-.038-.019-.016.016" class="st3"/><path d="m10.133 6.533.021.019-.026.034-.007.003-.005-.005-.009-.041.026-.01" class="st3"/><path d="m10.177 6.601-.016.014-.037-.02-.003-.006.006-.005.043-.004.007.021" class="st3"/><ellipse cx="10.121" cy="6.589" class="st3" rx=".015" ry=".014"/><path d="M10.197 6.626c.002-.005 0-.011-.004-.013-.004-.001-.009.003-.011.008-.002.006 0 .011.004.013s.009-.002.011-.008zM10.27 6.63l.02-.022a.088.088 0 0 1 .021-.01c0-.002-.009-.008-.018-.008-.006 0-.011.002-.014.006l-.001-.006s-.007.002-.011.01c-.003.009-.001.022-.001.022l.004.008zM10.212 6.607l.003.02.043.004.006-.004V6.62l-.032-.026-.02.013" class="st3"/><path d="M10.271 6.622c-.003-.004-.011-.003-.016.002s-.007.011-.004.015c.004.004.011.003.017-.002.005-.004.006-.011.003-.015z" class="st3"/></g><g id="crown_pt2_00000083780295906191286630000007384985739967746688_"><path d="m9.728 6.729.01-.015.02.004-.012.017-.018-.006" class="st8"/><path d="m9.814 6.714-.021.004c-.006 0-.011-.003-.012-.008 0-.005.003-.01.008-.011l.021-.003.022-.003c.006-.001.011.003.012.007.001.005-.003.01-.008.011l-.022.003" class="st9"/><ellipse cx="9.886" cy="6.699" class="st10" rx=".013" ry=".012"/><path d="M9.963 6.704h-.03c-.006 0-.01-.004-.01-.009 0-.005.004-.009.01-.009h.06c.006 0 .01.004.01.009 0 .005-.005.009-.01.009h-.03" class="st8"/><ellipse cx="10.038" cy="6.699" class="st10" rx=".013" ry=".012"/><path d="m10.11 6.714.021.003a.01.01 0 0 0 .012-.008c.001-.005-.003-.01-.008-.011l-.021-.003-.022-.003c-.006 0-.012.004-.012.008-.001.005.003.01.008.011l.022.003" class="st9"/><path d="m10.194 6.73-.008-.016-.021.002.01.018.019-.004" class="st8"/><path d="M9.961 6.785a.873.873 0 0 1-.193-.019.813.813 0 0 1 .193-.021c.075 0 .143.008.194.021a.883.883 0 0 1-.194.019z" class="st2"/><path d="M9.996 6.782v-.034m-.017.036v-.037m-.013.037v-.038" class="st11"/><path d="M9.955 6.784v-.038" class="st12"/><path d="M9.944 6.784v-.038" class="st13"/><path d="M9.934 6.784v-.038M9.924 6.784v-.038" class="st14"/><path d="M9.915 6.784v-.038" class="st15"/><path d="M9.899 6.782v-.035m.008.036v-.036" class="st16"/><path d="M9.883 6.781v-.032m.008.033v-.034" class="st17"/><path d="M9.862 6.779v-.028m.007.028V6.75m.007.031V6.75" class="st18"/><path d="M9.855 6.779v-.027" class="st19"/><path d="M9.848 6.778v-.026" class="st20"/><path d="M9.841 6.777v-.024" class="st21"/><path d="M9.826 6.775v-.019m.008.02v-.021M9.818 6.773v-.016" class="st22"/><path d="M9.811 6.772v-.014" class="st23"/><path d="M9.804 6.77v-.011" class="st24"/><path d="M9.796 6.769v-.008" class="st25"/><path d="M9.788 6.767v-.004" class="st26"/></g></g><g id="pillar_right"><g id="pillar_left_00000141452342707004284600000001670763413657153201_"><path d="M10.44 9.92a.274.274 0 0 1-.121-.026.275.275 0 0 0-.118-.025.284.284 0 0 0-.12.025.263.263 0 0 1-.12.026.27.27 0 0 1-.121-.027.28.28 0 0 0-.115-.023.269.269 0 0 0-.118.024.279.279 0 0 1-.122.026v.072a.27.27 0 0 0 .121-.026.26.26 0 0 1 .118-.025c.044 0 .086.009.116.024a.267.267 0 0 0 .121.027c.047 0 .089-.01.12-.026a.27.27 0 0 1 .12-.025c.046 0 .088.01.118.025a.266.266 0 0 0 .12.026l.001-.072z" class="st27"/><path d="M10.44 9.993a.274.274 0 0 1-.121-.026.275.275 0 0 0-.118-.025.284.284 0 0 0-.12.025.27.27 0 0 1-.12.026.27.27 0 0 1-.121-.027.264.264 0 0 0-.115-.024.255.255 0 0 0-.118.025.293.293 0 0 1-.122.026v.072a.27.27 0 0 0 .121-.026.26.26 0 0 1 .118-.025c.044 0 .086.009.116.024a.267.267 0 0 0 .121.027c.047 0 .089-.01.12-.026a.27.27 0 0 1 .12-.025c.046 0 .088.01.118.025a.266.266 0 0 0 .12.026l.001-.072" class="st28"/><path d="M10.44 10.065a.274.274 0 0 1-.121-.026.26.26 0 0 0-.118-.025.284.284 0 0 0-.12.025.27.27 0 0 1-.12.026.27.27 0 0 1-.121-.027.269.269 0 0 0-.116-.024.255.255 0 0 0-.118.025.27.27 0 0 1-.121.026v.072a.27.27 0 0 0 .121-.026.275.275 0 0 1 .118-.024c.044 0 .086.009.116.024a.267.267 0 0 0 .121.027c.047 0 .089-.01.12-.026a.27.27 0 0 1 .12-.025c.046 0 .088.009.118.025a.266.266 0 0 0 .12.026l.001-.073" class="st27"/><path d="M10.44 10.21a.266.266 0 0 1-.12-.026.275.275 0 0 0-.118-.025c-.046 0-.089.009-.12.025s-.074.026-.12.026a.27.27 0 0 1-.121-.027.269.269 0 0 0-.116-.024.269.269 0 0 0-.118.024.27.27 0 0 1-.121.026v-.072a.27.27 0 0 0 .121-.027.275.275 0 0 1 .118-.024c.044 0 .086.009.116.024a.267.267 0 0 0 .121.027c.047 0 .089-.01.12-.026a.27.27 0 0 1 .12-.025c.046 0 .088.009.118.025a.268.268 0 0 0 .121.026l-.001.073" class="st28"/><path d="M10.44 10.282a.266.266 0 0 1-.12-.026.26.26 0 0 0-.118-.025.284.284 0 0 0-.12.025.27.27 0 0 1-.12.026.27.27 0 0 1-.121-.027.269.269 0 0 0-.116-.024.255.255 0 0 0-.118.025.27.27 0 0 1-.121.026v-.072a.27.27 0 0 0 .121-.027.261.261 0 0 1 .118-.024c.044 0 .086.009.116.024a.267.267 0 0 0 .121.027c.047 0 .089-.01.12-.026a.27.27 0 0 1 .12-.025c.046 0 .088.009.118.025a.268.268 0 0 0 .121.026l-.001.072z" class="st27"/><path d="M9.693 9.623c.002.007.004.012.004.019 0 .044-.039.079-.086.079h.703c-.048 0-.086-.035-.086-.079l.003-.019a.03.03 0 0 1-.013.002h-.512c-.004 0-.009 0-.013-.002z" class="st29"/><path d="M9.706 9.578h.512c.017 0 .031.011.031.023s-.014.024-.031.024h-.512c-.017 0-.031-.011-.031-.024s.014-.023.031-.023zM9.612 9.896h.701v-.175h-.701v.175z" class="st30"/><path d="M9.713 9.55h.498V7.161h-.498V9.55z" class="st28"/><path d="M10.068 7.164v2.384m.056-2.384v2.384" class="st31"/><path d="M9.622 6.971h.684v-.175h-.684v.175z" class="st30"/><path d="M9.693 7.088c.004-.002.007-.002.013-.002h.512l.014.002c-.018-.006-.03-.021-.03-.04s.014-.034.032-.04a.068.068 0 0 1-.015.002h-.513c-.005 0-.01 0-.014-.002l.002.002a.04.04 0 0 1 .029.039.042.042 0 0 1-.03.039z" class="st29"/><path d="M9.706 7.086h.512c.017 0 .031.011.031.023 0 .013-.014.024-.031.024h-.512c-.017 0-.031-.01-.031-.024 0-.013.014-.023.031-.023zM9.706 6.971h.512c.017 0 .032.009.032.02 0 .011-.014.02-.032.02h-.512c-.017 0-.031-.009-.031-.02 0-.011.014-.02.031-.02z" class="st30"/></g></g><g id="ribbon_right" transform="matrix(-1 0 0 1 500.57 0)"><g id="ribbon_left_00000168086334531542689410000005228132764747454375_"><path d="M10.368 8.959c.069.039.117.079.109.099-.004.018-.026.032-.057.052-.05.034-.08.094-.056.122a.172.172 0 0 1-.067-.135.168.168 0 0 1 .071-.138z" class="st32"/><path d="M9.205 8.054c.109-.044.294-.076.506-.083.073 0 .154.007.239.021.298.049.525.165.507.26a.024.024 0 0 1-.002.008s.112-.246.113-.256c.02-.105-.232-.235-.563-.289a1.7 1.7 0 0 0-.292-.022c-.212 0-.396.027-.507.067l-.001.294" class="st33"/><path d="M10.214 8.354c.138-.01.232-.046.243-.102.009-.045-.038-.095-.122-.14-.037.004-.079.009-.123.009l.002.233M9.713 8.171a.415.415 0 0 0-.183.06l-.003.005c-.015.031.06.097.187.17l-.001-.235" class="st32"/><path d="M10.523 8.815c.013-.038-.122-.116-.312-.184a3.592 3.592 0 0 1-.248-.101c-.265-.115-.46-.246-.436-.294l.003-.005c-.014.012-.037.248-.037.248-.023.043.155.173.399.287.078.037.243.096.32.123.139.047.277.136.265.169l.046-.243z" class="st33"/></g></g><g id="plus_ultra"><path d="M5.104 7.939c.061-.022.101-.047.082-.094-.013-.03-.045-.035-.092-.019l-.083.03.075.181.025-.01.026-.008-.033-.08zm-.037-.087.021-.007c.017-.006.037.003.046.024.006.016.005.034-.015.046-.006.004-.014.007-.021.01l-.031-.073M5.299 7.777l-.027.006-.027.004.043.188.134-.026-.004-.012-.001-.012a.847.847 0 0 1-.08.02l-.038-.168M5.568 7.939c.025-.068.056-.134.086-.2l-.017.002H5.62a1.424 1.424 0 0 1-.056.144c-.026-.045-.054-.09-.075-.135l-.032.004-.032.001c.039.062.076.123.112.187l.015-.002c.005-.002.011-.001.016-.001M5.849 7.794l.015-.027a.131.131 0 0 0-.056-.019c-.055-.005-.086.018-.09.051-.008.068.102.062.096.107-.002.019-.023.027-.045.025-.025-.002-.043-.016-.046-.036h-.007a.252.252 0 0 1-.015.034c.016.01.037.016.057.018.056.006.099-.016.103-.052.007-.065-.104-.068-.099-.106.002-.016.014-.026.043-.024a.043.043 0 0 1 .039.029h.005M9.516 7.949c.019-.07.043-.137.067-.206l-.016.004-.017.001a1.65 1.65 0 0 1-.043.148c-.03-.043-.062-.085-.087-.129l-.031.006-.032.004c.044.058.087.117.129.177l.015-.004.015-.001M9.705 7.745l-.027.001-.027-.002-.004.192.138.002a.043.043 0 0 1-.002-.012l.002-.012a1 1 0 0 1-.083.003l.003-.172M9.921 7.776c.022.002.043.006.064.009l-.001-.012.003-.012-.185-.014.001.012-.003.012a.512.512 0 0 1 .067.001l-.016.173.027.001.027.003.016-.173M9.998 7.966l.027.004a.25.25 0 0 1 .026.007l.022-.088h.002l.015.036.028.067.032.005.032.008-.01-.02c-.015-.03-.03-.06-.043-.091.034.001.061-.011.067-.038.005-.019-.003-.033-.021-.046-.013-.009-.039-.014-.056-.018l-.075-.016-.046.19m.096-.163c.022.005.049.008.049.032a.046.046 0 0 1-.002.014c-.007.028-.029.038-.065.027l.018-.073M10.352 8.024c-.002.021-.006.041-.01.063l.028.013.026.016.018-.217-.013-.006-.011-.007-.196.122.016.007.014.008c.017-.014.034-.025.053-.039l.075.04zm-.055-.05.065-.041-.008.072-.057-.031" class="st4"/></g></g><g id="crown_crest"><path d="M7.656 5.482c.204 0 .385.03.503.075a.96.96 0 0 0 .258.065c.076.01.148.012.21.007a.836.836 0 0 1 .326.074c.1.043.184.096.239.147l-.048.043-.014.119-.132.147-.066.055-.156.122-.08.006-.024.068-1.009-.116-1.013.116-.024-.067-.08-.006-.156-.123-.066-.055-.132-.147-.013-.119-.049-.042a.877.877 0 0 1 .239-.147.836.836 0 0 1 .326-.074c.063.004.134.003.21-.007a.98.98 0 0 0 .258-.065c.118-.047.289-.076.493-.076z" class="st8"/><path d="m6.91 5.743.042.033.064-.102a.231.231 0 0 1-.116-.195l.002-.027c.006-.13.169-.238.374-.238.107 0 .203.029.271.074l.006-.056a.567.567 0 0 0-.277-.068c-.236 0-.421.132-.43.287a.276.276 0 0 0 .098.238l-.034.054" class="st30"/><path d="M6.913 5.744c-.08-.059-.131-.139-.131-.228 0-.101.068-.192.171-.252a.264.264 0 0 0-.109.215c0 .083.039.158.1.21l-.031.055" class="st30"/><path d="M6.201 5.847a.27.27 0 0 1-.045-.303c.065-.131.27-.227.514-.227.066 0 .13.007.188.02-.013.014-.023.03-.033.045a.86.86 0 0 0-.155-.014c-.223 0-.41.085-.464.199a.222.222 0 0 0 .064.271l-.081.129-.043-.034.055-.086z" class="st30"/><path d="M6.284 5.414a.338.338 0 0 0-.128.13.27.27 0 0 0 .045.303l-.049.077a.317.317 0 0 1-.074-.201c0-.126.082-.236.206-.309zM7.668 5.138c.054 0 .101.035.112.082a.953.953 0 0 1 .013.139v.016a.11.11 0 0 0 .002.018c0 .105.015.198.037.255l-.164.154-.167-.154a.84.84 0 0 0 .04-.256l.001-.018v-.016a.967.967 0 0 1 .013-.139c.01-.046.059-.081.113-.081z" class="st30"/><path d="M7.668 5.188c.028 0 .052.017.057.042a.86.86 0 0 1 .012.131v.014l.001.018c.002.1.016.188.037.241l-.108.101-.109-.1a.766.766 0 0 0 .037-.241l.001-.018v-.014a.855.855 0 0 1 .013-.132c.005-.024.031-.042.059-.042zM8.424 5.743l-.042.033-.064-.102a.23.23 0 0 0 .117-.195l-.002-.027c-.006-.13-.169-.238-.374-.238a.498.498 0 0 0-.271.074.951.951 0 0 0-.007-.056.572.572 0 0 1 .278-.068c.236 0 .421.132.43.287l.001.028a.276.276 0 0 1-.1.21l.034.054" class="st30"/><path d="M8.421 5.744c.081-.059.131-.139.131-.227 0-.101-.068-.192-.171-.252.063.05.102.115.108.187l.001.027a.276.276 0 0 1-.1.21l.031.055" class="st30"/><path d="M9.133 5.847a.273.273 0 0 0 .045-.303c-.066-.131-.27-.227-.514-.227a.883.883 0 0 0-.189.02c.013.014.023.029.033.044a.988.988 0 0 1 .157-.013c.223 0 .409.085.463.199a.222.222 0 0 1-.064.271l.081.129.044-.034-.056-.086z" class="st30"/><path d="M9.051 5.414a.338.338 0 0 1 .128.13.264.264 0 0 1 .028.119c0 .07-.028.134-.073.184l.049.078a.322.322 0 0 0 .074-.201c-.001-.127-.082-.237-.206-.31z" class="st30"/><ellipse cx="7.668" cy="5.019" rx=".136" ry=".126" style="fill:#005bbf;stroke:#000;stroke-width:.0079"/><path d="M7.633 4.666v.068h-.075v.069h.074v.199h-.093c-.001.006-.007.01-.007.017a.117.117 0 0 0 .012.05h.249l.001-.001a.117.117 0 0 0 .011-.049c0-.007-.006-.011-.007-.018h-.091v-.198h.074v-.069h-.074v-.068h-.074z" class="st3"/><ellipse cx="7.668" cy="5.668" class="st39" rx=".059" ry=".054"/><ellipse cx="7.668" cy="5.562" class="st39" rx=".059" ry=".054"/><ellipse cx="7.668" cy="5.448" class="st39" rx=".047" ry=".043"/><ellipse cx="7.668" cy="5.345" class="st39" rx=".034" ry=".031"/><ellipse cx="7.668" cy="5.255" class="st39" rx=".027" ry=".025"/><ellipse cx="6.101" cy="5.96" class="st39" rx=".034" ry=".031"/><ellipse cx="6.055" cy="5.881" class="st39" rx=".034" ry=".031"/><ellipse cx="6.024" cy="5.788" class="st39" rx=".034" ry=".031"/><ellipse cx="6.02" cy="5.689" class="st39" rx=".034" ry=".031"/><ellipse cx="6.045" cy="5.592" class="st39" rx=".034" ry=".031"/><ellipse cx="6.097" cy="5.503" class="st39" rx=".034" ry=".031"/><ellipse cx="6.166" cy="5.431" class="st39" rx=".034" ry=".031"/><ellipse cx="6.246" cy="5.37" class="st39" rx=".034" ry=".031"/><ellipse cx="6.342" cy="5.321" class="st39" rx=".034" ry=".031"/><ellipse cx="6.441" cy="5.286" class="st39" rx=".034" ry=".031"/><ellipse cx="6.552" cy="5.266" class="st39" rx=".034" ry=".031"/><ellipse cx="6.658" cy="5.261" class="st39" rx=".034" ry=".031"/><ellipse cx="6.761" cy="5.264" class="st39" rx=".034" ry=".031"/><ellipse cx="6.876" cy="5.71" class="st39" rx=".034" ry=".031"/><ellipse cx="6.818" cy="5.629" class="st39" rx=".034" ry=".031"/><ellipse cx="6.788" cy="5.543" class="st39" rx=".034" ry=".031"/><ellipse cx="6.792" cy="5.447" class="st39" rx=".034" ry=".031"/><ellipse cx="6.813" cy="5.351" class="st39" rx=".034" ry=".031"/><ellipse cx="6.864" cy="5.264" class="st39" rx=".034" ry=".031"/><ellipse cx="6.943" cy="5.204" class="st39" rx=".034" ry=".031"/><ellipse cx="7.035" cy="5.154" class="st39" rx=".034" ry=".031"/><ellipse cx="7.136" cy="5.125" class="st39" rx=".034" ry=".031"/><ellipse cx="7.241" cy="5.107" class="st39" rx=".034" ry=".031"/><ellipse cx="7.345" cy="5.108" class="st39" rx=".034" ry=".031"/><ellipse cx="7.452" cy="5.126" class="st39" rx=".034" ry=".031"/><ellipse cx="7.551" cy="5.16" class="st39" rx=".034" ry=".031"/><ellipse cx="7.783" cy="5.16" class="st39" rx=".034" ry=".031"/><ellipse cx="7.883" cy="5.126" class="st39" rx=".034" ry=".031"/><ellipse cx="7.99" cy="5.108" class="st39" rx=".034" ry=".031"/><ellipse cx="8.093" cy="5.107" class="st39" rx=".034" ry=".031"/><ellipse cx="8.198" cy="5.125" class="st39" rx=".034" ry=".031"/><ellipse cx="8.3" cy="5.154" class="st39" rx=".034" ry=".031"/><ellipse cx="8.392" cy="5.204" class="st39" rx=".034" ry=".031"/><ellipse cx="8.47" cy="5.264" class="st39" rx=".034" ry=".031"/><ellipse cx="8.522" cy="5.351" class="st39" rx=".034" ry=".031"/><ellipse cx="8.543" cy="5.447" class="st39" rx=".034" ry=".031"/><ellipse cx="8.546" cy="5.543" class="st39" rx=".034" ry=".031"/><ellipse cx="8.516" cy="5.629" class="st39" rx=".034" ry=".031"/><ellipse cx="8.459" cy="5.71" class="st39" rx=".034" ry=".031"/><ellipse cx="8.573" cy="5.264" class="st39" rx=".034" ry=".031"/><ellipse cx="8.677" cy="5.261" class="st39" rx=".034" ry=".031"/><ellipse cx="8.782" cy="5.266" class="st39" rx=".034" ry=".031"/><ellipse cx="8.893" cy="5.286" class="st39" rx=".034" ry=".031"/><ellipse cx="8.993" cy="5.321" class="st39" rx=".034" ry=".031"/><ellipse cx="9.088" cy="5.37" class="st39" rx=".034" ry=".031"/><ellipse cx="9.168" cy="5.431" class="st39" rx=".034" ry=".031"/><ellipse cx="9.237" cy="5.503" class="st39" rx=".034" ry=".031"/><ellipse cx="9.289" cy="5.592" class="st39" rx=".034" ry=".031"/><ellipse cx="9.314" cy="5.689" class="st39" rx=".034" ry=".031"/><ellipse cx="9.31" cy="5.788" class="st39" rx=".034" ry=".031"/><ellipse cx="9.28" cy="5.881" class="st39" rx=".034" ry=".031"/><ellipse cx="9.234" cy="5.96" class="st39" rx=".034" ry=".031"/><path d="M7.671 6.785c-.376 0-.713-.044-.953-.115a.035.035 0 0 1-.026-.037c0-.016.009-.03.026-.035.24-.071.577-.114.953-.115.376.001.713.044.953.115.018.005.026.019.026.035a.035.035 0 0 1-.025.037 3.53 3.53 0 0 1-.954.115" class="st30"/><path d="M7.669 6.483a3.518 3.518 0 0 0-.963.12c.02-.009.018-.034-.007-.096-.03-.076-.077-.073-.077-.073a3.942 3.942 0 0 1 1.048-.125 4.05 4.05 0 0 1 1.051.125s-.047-.003-.077.073c-.025.062-.026.086-.006.096a3.57 3.57 0 0 0-.969-.12" class="st30"/><path d="M7.67 6.309a4.012 4.012 0 0 0-1.047.125c-.018.005-.037-.001-.043-.018a.032.032 0 0 1 .022-.04c.267-.08.646-.13 1.068-.131.422.001.803.051 1.07.131.018.005.028.024.022.04-.006.017-.024.023-.042.018a4.037 4.037 0 0 0-1.05-.125" class="st30"/><path d="M7.673 5.993 7.711 6a.13.13 0 0 0-.008.049c0 .077.068.139.151.139a.15.15 0 0 0 .143-.096c.003.002.015-.05.021-.05.005.001.005.054.007.053.01.07.075.118.149.118.083 0 .151-.062.151-.14l-.001-.017.047-.046.025.058a.134.134 0 0 0-.014.062c0 .074.064.133.144.133.05 0 .094-.023.12-.059l.03-.037v.046c0 .047.02.088.066.095 0 0 .053.003.124-.051.07-.054.109-.099.109-.099l.005.054s-.058.089-.122.124c-.035.02-.088.041-.13.034-.043-.006-.075-.041-.091-.081a.222.222 0 0 1-.109.029.21.21 0 0 1-.194-.116.216.216 0 0 1-.159.068.223.223 0 0 1-.171-.077.222.222 0 0 1-.15.056.223.223 0 0 1-.182-.091.223.223 0 0 1-.182.091.22.22 0 0 1-.149-.056.229.229 0 0 1-.172.076.213.213 0 0 1-.159-.068.21.21 0 0 1-.194.116.222.222 0 0 1-.109-.029c-.017.04-.048.075-.093.082-.041.007-.094-.013-.129-.033-.063-.036-.122-.125-.122-.125l.006-.054s.039.045.109.099c.07.054.123.051.123.051.046-.008.066-.049.066-.095v-.046l.03.037c.026.036.07.059.12.059.079 0 .144-.059.144-.133a.125.125 0 0 0-.014-.061l.025-.058.048.046-.001.017c0 .077.067.14.151.14.074 0 .14-.048.15-.118.002.001.002-.053.007-.053.006-.001.018.051.021.05a.15.15 0 0 0 .144.096c.083 0 .151-.062.151-.139-.002-.019-.003-.035-.01-.05l.04-.007" class="st30"/><path d="M6.39 6.19a.066.066 0 0 0-.022-.032c-.024-.021-.056-.024-.072-.008-.003.002-.004.005-.006.008 0 0-.034-.062-.074-.083-.04-.021-.107-.016-.107-.016 0-.048.04-.087.092-.087.03 0 .059.012.076.033l.007-.032s.042.008.061.055c.019.047-.002.114-.002.114s.01-.029.026-.048a.286.286 0 0 1 .076-.05c.021-.009.043-.024.043-.024l.002.018v.025a.257.257 0 0 1 .117.014.15.15 0 0 1-.08.069l.025.023c.01.01.013.015.013.015l-.039.006c-.013.001-.057.008-.083.006a.565.565 0 0 1-.053-.006" class="st30"/><path d="M6.296 6.15c.016-.016.048-.013.072.007.025.02.031.05.016.066-.016.017-.049.013-.073-.007-.024-.02-.031-.05-.015-.066" class="st32"/><path d="M6.636 6.177c-.009-.025-.001-.049.017-.055.018-.006.04.01.049.035.009.025.001.049-.017.055-.018.006-.04-.01-.049-.035" class="st39"/><path d="M6.934 6.056a.058.058 0 0 1-.021-.032.053.053 0 0 1 .007-.037s-.027-.013-.056-.021c-.021-.006-.06-.006-.072-.006l-.035-.001.009.017c.008.014.015.022.015.022a.158.158 0 0 0-.093.063c.03.02.071.033.11.029 0 0-.004.01-.006.026l-.002.018.033-.012c.011-.004.047-.016.066-.029.024-.016.045-.037.045-.037M6.921 5.749a.162.162 0 0 1 .07.091s.004-.008.022-.018c.018-.01.033-.01.033-.01l-.008.04c-.003.01-.003.041-.01.07-.006.028-.018.051-.018.051a.062.062 0 0 0-.048-.012.054.054 0 0 0-.04.027s-.02-.017-.037-.041c-.018-.025-.03-.054-.036-.063l-.022-.035s.014-.005.035-.002c.021.004.027.01.027.01a.155.155 0 0 1 .032-.108" class="st30"/><path d="M7.022 6.041c.007-.01.01-.024.007-.037a.052.052 0 0 0-.02-.032s.021-.021.045-.038c.018-.012.055-.024.066-.028l.033-.012-.002.018-.006.027c.04-.004.08.009.111.029a.162.162 0 0 1-.094.062s.007.008.015.022l.009.017-.035-.001c-.012 0-.051 0-.073-.006a.227.227 0 0 1-.056-.021" class="st30"/><ellipse cx="6.973" cy="6.013" class="st32" rx=".067" ry=".062"/><path d="M7.291 6.053c-.003-.026.01-.049.029-.051.019-.002.038.017.041.043.003.026-.009.049-.029.051-.019.002-.037-.017-.041-.043" class="st39"/><path d="M7.621 5.995a.06.06 0 0 1-.016-.04.06.06 0 0 1 .016-.04s-.027-.02-.058-.034a.44.44 0 0 0-.08-.02l-.04-.007.006.02a.21.21 0 0 0 .012.028.19.19 0 0 0-.116.053c.029.028.072.05.117.052 0 0-.006.011-.012.028l-.006.02.039-.007a.44.44 0 0 0 .08-.02c.03-.013.058-.033.058-.033" class="st30"/><path d="M7.67 5.651a.176.176 0 0 1 .06.115s.006-.008.028-.016.039-.005.039-.005l-.017.042c-.005.011-.012.046-.026.076-.013.03-.032.053-.032.053a.07.07 0 0 0-.051-.023.066.066 0 0 0-.051.023s-.019-.023-.032-.053c-.014-.03-.021-.065-.026-.076l-.017-.042s.017-.003.039.005.028.016.028.016a.173.173 0 0 1 .058-.115" class="st30"/><path d="M7.721 5.995a.06.06 0 0 0 .016-.04.06.06 0 0 0-.016-.04s.027-.02.058-.034a.421.421 0 0 1 .08-.02l.039-.007-.006.021c-.006.016-.012.027-.012.027a.182.182 0 0 1 .117.053.193.193 0 0 1-.117.053.21.21 0 0 0 .018.048l-.039-.007a.44.44 0 0 1-.08-.02c-.03-.014-.058-.034-.058-.034" class="st30"/><ellipse cx="7.671" cy="5.955" class="st32" rx=".067" ry=".062"/><path d="M8.052 6.053c.003-.026-.009-.049-.029-.051-.018-.002-.037.017-.04.043-.003.026.01.049.029.051.019.002.037-.017.04-.043" class="st39"/><path d="M8.322 6.041a.052.052 0 0 1-.008-.037.054.054 0 0 1 .021-.032s-.021-.021-.045-.038c-.019-.012-.055-.024-.066-.028l-.033-.012.002.018c.002.016.006.026.006.026a.172.172 0 0 0-.11.029c.02.03.054.055.093.063 0 0-.007.008-.015.022l-.009.017.035-.001c.012 0 .051 0 .073-.006a.227.227 0 0 0 .056-.021" class="st30"/><path d="M8.423 5.749a.168.168 0 0 0-.071.091s-.004-.008-.022-.018c-.018-.01-.033-.01-.033-.01l.008.04c.003.01.003.041.01.07a.21.21 0 0 0 .02.05.062.062 0 0 1 .048-.012.057.057 0 0 1 .041.027s.02-.017.037-.041c.017-.024.028-.053.034-.062l.022-.034s-.015-.006-.035-.002c-.021.004-.027.01-.027.01a.157.157 0 0 0-.032-.109" class="st30"/><path d="M8.409 6.056a.05.05 0 0 0 .021-.033.048.048 0 0 0-.007-.037s.027-.013.056-.021c.022-.005.061-.005.073-.005l.035-.001-.009.016-.015.023a.163.163 0 0 1 .093.063.174.174 0 0 1-.11.029l.006.026.002.018-.033-.012c-.011-.004-.047-.016-.066-.029-.024-.016-.046-.037-.046-.037" class="st30"/><ellipse cx="8.371" cy="6.013" class="st32" rx=".067" ry=".062"/><path d="M8.708 6.177c.009-.025.001-.049-.017-.055-.018-.006-.04.01-.049.035-.009.025-.002.05.017.055.018.006.04-.01.049-.035" class="st39"/><path d="M8.954 6.19a.071.071 0 0 1 .022-.032c.024-.021.057-.024.072-.008l.006.008s.034-.062.074-.083.107-.016.107-.016a.089.089 0 0 0-.092-.087.098.098 0 0 0-.076.033l-.007-.032s-.042.008-.061.055c-.019.046.002.114.002.114s-.01-.029-.026-.048a.286.286 0 0 0-.076-.05c-.021-.009-.042-.024-.042-.024l-.002.018a.16.16 0 0 0 0 .025.258.258 0 0 0-.117.015.15.15 0 0 0 .08.069l-.025.023c-.01.01-.013.015-.013.015l.038.005c.013.001.057.008.082.006a.552.552 0 0 0 .054-.006" class="st30"/><path d="M9.048 6.15c-.015-.016-.048-.013-.072.008-.024.02-.031.05-.016.066.016.016.048.012.073-.008.024-.02.031-.05.015-.066" class="st32"/><path d="M7.67 6.737c-.339 0-.646-.039-.88-.098.233-.059.54-.095.88-.096.34.001.648.037.882.096a3.72 3.72 0 0 1-.882.098z" class="st33"/><path d="M7.913 6.728v-.18m-.092.186.001-.191m-.069.194v-.195" class="st15"/><path d="M7.696 6.739v-.197" class="st19"/><path d="M7.641 6.739v-.197" class="st24"/><path d="M7.589 6.739v-.197" class="st26"/><path d="M7.538 6.739v-.197" style="fill:none;stroke:#000;stroke-width:.007"/><path d="M7.492 6.739v-.197" style="fill:none;stroke:#000;stroke-width:.0085"/><path d="m7.405 6.728-.001-.179m.043.182v-.188" style="fill:none;stroke:#000;stroke-width:.01"/><path d="M7.325 6.72v-.165m.041.17-.001-.176" style="fill:none;stroke:#000;stroke-width:.0112"/><path d="M7.217 6.711v-.145m.036.147v-.152m.036.157V6.56" style="fill:none;stroke:#000;stroke-width:.0127"/><path d="M7.18 6.71v-.14" style="fill:none;stroke:#000;stroke-width:.014"/><path d="M7.144 6.703v-.131" style="fill:none;stroke:#000;stroke-width:.0155"/><path d="M7.107 6.699v-.122" style="fill:none;stroke:#000;stroke-width:.017"/><path d="m7.029 6.688-.001-.096m.041.101v-.108" style="fill:none;stroke:#000;stroke-width:.0182"/><path d="M6.99 6.68v-.085" style="fill:none;stroke:#000;stroke-width:.0191"/><path d="M6.953 6.674v-.071" style="fill:none;stroke:#000;stroke-width:.0206"/><path d="M6.914 6.664v-.056" style="fill:none;stroke:#000;stroke-width:.0221"/><path d="M6.873 6.659v-.041" style="fill:none;stroke:#000;stroke-width:.0234"/><path d="M6.83 6.65v-.02" style="fill:none;stroke:#000;stroke-width:.0276"/><path d="M6.75 6.65a3.63 3.63 0 0 1 .92-.106c.36 0 .685.04.922.106" class="st31"/><path d="m6.646 6.515.037-.048.104.013-.083.059-.058-.024" class="st32"/><path d="M6.87 6.458c0-.017.015-.031.034-.031s.034.014.034.031-.015.031-.034.031-.034-.014-.034-.031" class="st39"/><path d="m7.165 6.452-.072.008c-.019.002-.036-.01-.038-.027-.003-.017.01-.032.029-.034l.073-.009.074-.008c.018-.002.035.01.037.027a.032.032 0 0 1-.029.035l-.074.008" class="st54"/><path d="M7.377 6.401c0-.017.015-.031.034-.031.018 0 .034.014.034.031s-.015.031-.034.031c-.019 0-.034-.014-.034-.031" class="st39"/><path d="M7.671 6.425H7.57c-.018 0-.034-.014-.034-.031s.015-.031.034-.031h.204c.019 0 .034.014.034.031s-.016.031-.034.031h-.103" class="st32"/><path d="M7.899 6.401c0-.017.015-.031.034-.031.019 0 .034.014.034.031s-.015.031-.034.031c-.019 0-.034-.014-.034-.031" class="st39"/><path d="m8.178 6.452.072.008c.018.002.036-.01.038-.027.002-.017-.011-.032-.029-.034l-.073-.009-.074-.008c-.019-.002-.036.01-.038.027-.002.017.011.033.03.035l.074.008" class="st54"/><path d="M8.405 6.458c0-.017.015-.031.034-.031s.034.014.034.031-.015.031-.034.031-.034-.014-.034-.031" class="st39"/><path d="m8.696 6.515-.037-.048-.103.013.082.059.058-.024" class="st32"/></g><g id="shield"><g id="Granada"><path d="M7.682 10.33c-.401 0-.799-.096-1.133-.256a.709.709 0 0 1-.41-.636v-.999h3.08v.999a.708.708 0 0 1-.41.636 2.64 2.64 0 0 1-1.127.256z" class="st55"/><path d="M7.756 9.886c.064.019.097.066.097.12 0 .071-.071.125-.163.125-.092 0-.166-.054-.166-.125 0-.054.031-.114.094-.118l-.007-.015-.02-.02s.024-.004.039.001c.014.006.023.014.023.014s.007-.012.016-.022c.009-.01.022-.016.022-.016s.014.011.019.019c.005.008.008.018.008.018s.013-.01.024-.015c.011-.005.026-.008.026-.008l-.008.021c-.003.007-.004.021-.004.021" style="fill:#ffd691;stroke:#000;stroke-width:.0158"/><path d="M7.676 10.21s-.122-.08-.175-.091c-.068-.014-.144-.003-.177-.004.001.001.04.028.056.044a.318.318 0 0 0 .105.057c.1.024.191-.006.191-.006M7.711 10.217s.078-.08.16-.091c.097-.013.16.008.197.017.001 0-.031.015-.048.026s-.06.047-.127.048c-.067.001-.14-.007-.152-.005l-.03.005" class="st57"/><path d="M7.688 10.118a.148.148 0 0 1 0-.223c.03.028.049.068.049.111a.148.148 0 0 1-.049.112" class="st58"/><path d="M7.657 10.281s.019-.046.021-.085c.002-.033-.005-.065-.005-.065h.025s.012.035.012.065c0 .031-.006.071-.006.071s-.017.002-.022.005a.287.287 0 0 1-.025.009" class="st57"/></g><g id="Aragon"><path d="M7.676 9.437c0 .395-.342.715-.768.715s-.771-.32-.771-.715v-1h1.539v1" class="st58"/><path d="M6.134 9.424c.005.211.09.367.176.47V8.41h-.174l-.002 1.014zM6.473 10.027c.048.025.114.067.185.083l-.005-1.709h-.18v1.626zM6.817 10.148a.83.83 0 0 0 .18 0V8.401h-.18v1.747zM7.155 10.11a.624.624 0 0 0 .185-.079v-1.63h-.18l-.005 1.709zM7.508 9.877c.075-.065.146-.214.171-.383l.004-1.093h-.18l.005 1.476z" class="st59"/></g><g id="Navarre"><path d="M9.22 8.437v1.001c0 .395-.346.715-.772.715-.426 0-.772-.32-.772-.715V8.437H9.22" class="st58"/><path id="chains_half" d="m8.363 9.184.006-.012-.131-.142-.051.022-.094-.102.031-.044-.164-.18-.008.002.001.121.054.015v.134l-.054.013-.001.123a.078.078 0 0 1 .053.05h.098l.016-.05h.145l.015.05h.084zm-.214-.555v.048h.085v-.048h-.085zm-.224.611c.02 0 .036-.015.036-.033 0-.018-.016-.033-.036-.033-.02 0-.036.015-.036.033 0 .019.016.033.036.033zm.491-.292-.054-.014V8.8l.054-.015v-.058a.08.08 0 0 1-.056-.05h-.082l-.016.05h-.144l-.016-.05h-.094a.344.344 0 0 1-.009.019l.165.179.051-.021.094.102-.031.043.128.139.009-.004.001-.186zm-.223-.041-.04.031.054.059.04-.031-.054-.059zm.246 1.085a.082.082 0 0 1-.077-.06.574.574 0 0 1-.145-.039l.025-.043c.04.016.082.027.125.033a.08.08 0 0 1 .048-.042v-.169l-.053-.014v-.134l.054-.014v-.23l-.006-.002-.122.132.031.043-.094.103-.051-.022-.101.11a.074.074 0 0 1-.004.086.532.532 0 0 0 .099.083l-.025.043a.55.55 0 0 1-.117-.097.087.087 0 0 1-.079-.015c-.035-.028-.04-.077-.009-.109l.004-.005a.45.45 0 0 1-.04-.15h.052a.423.423 0 0 0 .033.128.098.098 0 0 1 .045.005l.102-.11-.031-.044.094-.102.051.022.122-.133a.196.196 0 0 1-.006-.014h-.085l-.015.05h-.145l-.016-.05h-.099a.08.08 0 0 1-.052.049v.121H7.9v-.12a.079.079 0 0 1-.059-.074c0-.035.025-.064.059-.074v-.122l-.054-.015v-.134l.054-.015v-.121a.079.079 0 0 1-.056-.074c0-.043.037-.077.084-.077.037 0 .069.022.08.053h.095l.016-.05h.144l.016.05h.081a.082.082 0 0 1 .078-.053l.002.251h-.025v.078h.026l-.001.648h-.024v.078h.024l-.001.361zm-.182-.549-.04-.031-.054.059.04.031.054-.059zm-.305-.553H7.9v.078h.052V8.89zm.281.342v-.048h-.088v.048h.088zm-.325.291-.054-.012-.008-.133.054-.018v.077c0 .03.003.058.008.086zm.044-.166.054.013.002.067.006.066-.054.018a.386.386 0 0 1-.008-.084v-.08zm.332.508.012-.051a.413.413 0 0 1-.128-.063l-.039.034a.53.53 0 0 0 .155.08zm-.026.043-.04.037a.594.594 0 0 1-.126-.063l.012-.053c.045.033.098.06.154.079z" class="st60"/><g transform="matrix(-1 0 0 1 550.43 0)"><path id="chains_half_00000110444906512320635750000005360529437521614271_" d="m8.517 9.184-.006-.012.131-.142.051.022.094-.102-.031-.044.164-.18.008.001-.001.121-.054.015v.134l.054.014.001.122a.082.082 0 0 0-.053.051h-.098l-.016-.05h-.145l-.016.05h-.083zm.214-.555v.048h-.085v-.048h.085zm.224.611c-.02 0-.036-.015-.036-.033 0-.018.016-.033.036-.033.02 0 .036.015.036.033 0 .019-.016.033-.036.033zm-.491-.292.054-.014V8.8l-.054-.015v-.058a.08.08 0 0 0 .056-.05h.082l.016.05h.144l.016-.05h.095a.064.064 0 0 0 .008.019l-.165.179-.051-.022-.094.102.031.043-.128.14a.036.036 0 0 1-.009-.004l-.001-.186zm.223-.041.04.031-.055.059-.04-.031.055-.059zm-.246 1.085a.082.082 0 0 0 .077-.06c.051-.007.1-.02.145-.039l-.025-.043a.536.536 0 0 1-.125.033.08.08 0 0 0-.048-.042v-.169l.054-.015v-.133l-.055-.014v-.23l.006-.002.122.132-.031.044.094.102.051-.021.101.11a.072.072 0 0 0 .004.085.47.47 0 0 1-.1.082l.026.043a.52.52 0 0 0 .116-.097.089.089 0 0 0 .08-.015c.035-.028.04-.077.009-.109l-.004-.004a.45.45 0 0 0 .04-.15h-.052a.396.396 0 0 1-.033.128.098.098 0 0 0-.045.005l-.102-.11.031-.043-.094-.103-.051.022-.123-.133a.035.035 0 0 0 .006-.014H8.6l.015.05h.145l.016-.05h.099a.082.082 0 0 0 .052.049v.121h.052v-.12a.079.079 0 0 0 .059-.074.079.079 0 0 0-.059-.074v-.122l.054-.014v-.135l-.053-.015v-.121a.079.079 0 0 0 .056-.074c0-.043-.037-.077-.084-.077a.084.084 0 0 0-.08.053h-.095l-.016-.05h-.144l-.016.05H8.52a.082.082 0 0 0-.079-.053l-.002.251h.026v.078h-.026l.001.648h.024v.078H8.44l.001.361zm.182-.549.04-.031.055.059-.04.031-.055-.059zm.305-.553h.052v.078h-.052V8.89zm-.281.342v-.048h.087v.048h-.087zm.325.291.054-.012.008-.134-.054-.017v.077c0 .03-.003.058-.008.086zm-.045-.166-.053.013-.002.067-.006.067.054.017a.386.386 0 0 0 .007-.084v-.08zm-.331.508-.012-.051a.413.413 0 0 0 .128-.063l.038.034a.512.512 0 0 1-.154.08zm.026.043.04.037a.594.594 0 0 0 .126-.063l-.012-.053a.59.59 0 0 1-.154.079z" class="st60"/></g><path d="M8.359 9.208c0-.043.038-.078.084-.078s.084.035.084.078-.037.077-.084.077-.084-.034-.084-.077" style="fill:#058e6e"/></g><g id="Castile"><path d="M6.137 8.438h1.539V6.766H6.137v1.672z" class="st58"/><path d="M6.665 7.152h-.028v-.027h-.05v.111h.05v.076H6.53v.222h.057v.444h-.113v.229h.872v-.23h-.114v-.443h.057v-.222h-.107v-.077h.05v-.11h-.05v.028h-.028v-.028h-.049v.028h-.036v-.028h-.05v.111h.05v.076h-.106v-.243h.056v-.111h-.056v.028h-.029v-.028h-.05v.028h-.028v-.028H6.8v.111h.057v.243H6.75v-.077h.05v-.11h-.05v.028h-.028v-.028h-.057v.027zm-.191 1.054h.872m-.872-.055h.872m-.872-.056h.872m-.872-.055h.872m-.872-.063h.872m-.759-.048h.645m-.645-.056h.645m-.645-.062h.645m-.645-.055h.645M6.587 7.7h.645m-.645-.055h.645m-.645-.056h.645m-.702-.055h.758m-.758-.056h.758m-.758-.055h.758m-.758-.056h.758m-.651-.055h.546m-.327-.056h.106m-.106-.055h.106m-.106-.056h.106m-.106-.055h.106M6.8 7.021h.22m-.383.235h.113m-.163-.069H6.8m-.213 1.019v-.055m0-.056V8.04m-.057.055v.056m.107 0v-.056m.056.111v-.055m0-.056V8.04m0-.063v-.048m0-.056v-.062m-.056.229v-.063m-.107.063v-.063m.22 0v.063m.05-.063v-.048m-.163-.056v.056m.113-.056v.056m.106-.056v.056M6.8 7.873v-.062m.056-.055v.055m0-.166V7.7M6.8 7.589v.056m.056-.111v.056m-.106-.056v.056m-.113-.056v.056m-.05-.112v.056m.106-.056v.056m.107-.056v.056m.056-.111v.056m-.106-.056v.056m-.113-.056v.056m-.05-.112v.055m.213-.055v.055m-.107-.166v.056m.489-.056h-.113m.163-.069h-.213m.213 1.019v-.055m0-.056V8.04m.057.055v.056m-.107 0v-.056m-.056.111v-.055m0-.056V8.04m0-.063v-.048m0-.056v-.062m.056.229v-.063m.107.063v-.063m-.22 0v.063m-.05-.063v-.048m.163-.056v.056m-.113-.056v.056m-.106-.056v.056m.056-.056v-.062m-.056-.055v.055m0-.166V7.7m.056-.111v.056m-.056-.111v.056m.106-.056v.056m.113-.056v.056m.05-.112v.056m-.106-.056v.056m-.107-.056v.056m-.056-.111v.056m.106-.056v.056m.113-.056v.056m.05-.112v.055m-.213-.055v.055m.107-.166v.056m-.22.561v-.062m0-.166v-.056m0 .167V7.7m0-.166v-.056m0-.055v-.056m0-.111v-.055m0-.056V7.09m-.269.145h.113m.106-.166h.106m.107.166h.113" class="st62"/><path d="M7.055 8.206V8.06c0-.028-.014-.111-.149-.111-.128 0-.142.083-.142.111v.146h.291z" class="st62"/><path d="m6.814 8.067-.071-.007c0-.028.007-.069.029-.083l.064.049c-.008.007-.022.028-.022.041zM6.934 7.998l.036-.062a.173.173 0 0 0-.064-.014.17.17 0 0 0-.057.014l.035.062h.05zM7.005 8.067l.071-.007c0-.028-.007-.069-.028-.083l-.064.049c.007.007.021.028.021.041zM6.8 7.825v-.153c0-.041-.028-.076-.078-.076s-.078.035-.078.076v.153H6.8zM7.019 7.825v-.153c0-.041.029-.076.078-.076s.078.035.078.076v.153h-.156zM6.75 7.451l.007-.139h-.135l.014.139h.114zM6.963 7.451l.014-.139h-.135l.007.139h.114zM7.069 7.451l-.014-.139h.142l-.015.139h-.113z" class="st62"/><path d="M7.005 8.206v-.125c0-.021-.014-.083-.099-.083a.084.084 0 0 0-.092.083v.125h.191zM6.786 7.811v-.132c0-.034-.021-.069-.064-.069s-.064.035-.064.069v.132h.128zM7.034 7.811v-.132c0-.034.021-.069.064-.069.042 0 .064.035.064.069v.132h-.128z" class="st63"/></g><g id="Leon"><path d="M7.675 8.438h1.543V6.766H7.675v1.672z" class="st55"/><path d="m8.462 7.178.002-.019.003-.01s-.049.004-.075-.003-.051-.018-.075-.038-.034-.033-.051-.035c-.042-.007-.074.012-.074.012s.031.011.055.039a.155.155 0 0 0 .06.046c.018.005.082.002.099.002l.056.006z" class="st64"/><path d="M8.693 7.11s0 .022.002.042c.002.02-.007.037-.003.048.003.011.005.02.009.028.004.008.006.028.006.028l-.022-.016a.363.363 0 0 0-.019-.013l.003.031a.079.079 0 0 0 .016.037c.009.01.027.027.032.04.006.013.004.043.004.043s-.014-.022-.026-.026l-.039-.019s.024.024.024.047-.01.048-.01.048-.01-.021-.025-.034a.247.247 0 0 0-.034-.027s.016.035.016.058c0 .024-.005.074-.005.074s-.012-.019-.024-.028c-.013-.01-.027-.018-.032-.024-.004-.006.015.019.017.035.002.015.01.07.059.141.029.041.073.113.169.089.095-.023.06-.149.04-.208a.454.454 0 0 1-.029-.146c.001-.023.018-.089.016-.102a.223.223 0 0 1 .004-.098c.012-.04.022-.056.029-.072.006-.017.012-.026.014-.04.002-.014.002-.041.002-.041s.018.032.022.043c.005.012.005.045.005.045s.003-.034.03-.05c.026-.016.057-.034.065-.043.008-.009.01-.015.01-.015s-.002.057-.019.08l-.054.062s.022-.008.038-.009h.027s-.02.015-.044.05c-.025.034-.014.037-.032.066-.018.029-.032.03-.055.048-.033.026-.015.13-.011.146.005.015.062.142.064.173.001.031.006.1-.049.144-.036.029-.095.029-.108.037-.013.008-.04.034-.04.087 0 .054.02.062.035.075.016.013.036.006.04.016.005.01.007.016.013.023.007.007.012.014.01.025-.003.012-.028.037-.037.056-.009.018-.027.067-.027.074s-.002.03.006.041c0 0 .028.032.009.038-.012.004-.024-.008-.03-.006-.017.004-.025.014-.03.013-.011-.002-.011-.007-.012-.023-.001-.015 0-.022-.005-.022-.007 0-.01.005-.011.014-.002.008-.002.027-.01.027s-.018-.013-.025-.016c-.007-.003-.026-.006-.027-.015-.001-.008.011-.025.023-.029.012-.003.023-.009.016-.015-.008-.006-.016-.006-.023 0-.008.006-.024.001-.024-.008a.09.09 0 0 0 .003-.026c-.001-.005-.015-.015.003-.024.018-.009.026.008.044.005s.026-.009.033-.019c.007-.01.006-.032-.007-.045-.012-.014-.025-.016-.029-.025a.166.166 0 0 1-.011-.027s.003.036.001.041-.001.026-.001.026l-.022-.023c-.01-.01-.02-.041-.02-.041l-.001.04c0 .011.013.022.009.026-.005.003-.026-.022-.032-.026-.005-.004-.023-.018-.031-.032s-.013-.035-.015-.042c-.002-.008-.006-.04-.002-.048l.014-.034H8.52c-.023 0-.04-.007-.049.008-.009.016-.005.047.006.087.011.04.018.059.015.067a.097.097 0 0 1-.023.026c-.006.004-.021.003-.028 0-.006-.003-.017-.009-.039-.009H8.36c-.008-.003-.027-.012-.036-.01-.008.002-.024.01-.019.022.007.018-.006.023-.016.022l-.028-.008c-.011-.003-.028 0-.025-.013.002-.012.007-.013.012-.022.006-.01.008-.016.001-.016s-.015-.001-.021.004c-.006.004-.016.015-.023.011-.008-.004-.015-.013-.015-.032 0-.019-.021-.036-.002-.035.019.001.043.014.048.004.004-.011.002-.015-.009-.023-.01-.008-.023-.013-.01-.023.014-.01.017-.01.023-.016.006-.007.014-.025.023-.021.019.009.001.022.02.043.019.021.031.028.064.025.032-.003.041-.007.041-.016 0-.009-.003-.025-.004-.031-.001-.007.004-.03.004-.03s-.014.009-.019.018l-.013.024s-.003-.018-.002-.033c.001-.009.004-.024.003-.027l-.007-.028s-.005.022-.009.028c-.003.006-.005.032-.005.032s-.02-.017-.014-.046c.004-.023-.004-.052.003-.062.007-.01.023-.049.063-.051.04-.001.071.001.085.001.014-.001.063-.01.063-.01s-.091-.045-.111-.059a.326.326 0 0 1-.064-.065c-.01-.016-.02-.047-.02-.047s-.016 0-.031.008a.148.148 0 0 0-.038.03c-.009.01-.022.032-.022.032l.002-.037-.002-.026s-.01.038-.031.053c-.021.014-.045.034-.045.034l.003-.026.005-.03s-.015.022-.037.026c-.023.004-.056.003-.059.017-.002.013.007.032.001.041s-.016.017-.016.017-.013-.011-.024-.012c-.011-.001-.022.005-.022.005s-.01-.012-.006-.02c.003-.008.021-.02.017-.025-.005-.005-.019.002-.027.006-.009.004-.027.008-.026-.006.002-.014.007-.022.002-.031-.004-.01-.002-.016.006-.018.006-.003.034 0 .037-.006.002-.007-.007-.015-.026-.019-.018-.004-.027-.014-.017-.023a.07.07 0 0 0 .017-.019c.004-.008.006-.023.022-.015.016.007.013.025.03.03a.13.13 0 0 0 .067-.007c.009-.005.036-.025.046-.03.01-.004.049-.034.049-.034l-.032-.024c-.008-.008-.024-.027-.032-.031a.282.282 0 0 0-.058-.019c-.013-.001-.053-.015-.053-.015s.018-.006.024-.011c.006-.005.02-.017.027-.016l.008.001s-.037-.001-.045-.003-.03-.016-.039-.016c-.009 0-.026.003-.026.003s.023-.014.042-.018c.019-.003.034-.002.034-.002s-.029-.009-.036-.018l-.019-.031c-.005-.006-.009-.016-.018-.017-.01-.001-.026.011-.036.01s-.016-.006-.017-.02c-.001-.014 0-.009-.003-.016-.004-.007-.018-.024-.005-.028.013-.004.041.002.044-.002.002-.005-.015-.02-.026-.025-.012-.006-.03-.015-.02-.024.01-.008.019-.011.024-.018s.011-.027.023-.021c.011.006.027.038.036.035.008-.002.008-.024.007-.034-.002-.01 0-.026.009-.025s.016.013.029.014c.014.001.035-.003.033.006a.084.084 0 0 1-.019.032c-.009.011-.014.032-.008.045.006.014.022.036.036.044s.04.015.056.026.055.04.067.043.026.01.026.01.015-.006.035-.006c.02 0 .066.003.083-.004s.04-.019.033-.035c-.007-.015-.045-.029-.041-.041.003-.012.017-.013.041-.014.023-.001.055.004.061-.028.006-.032.008-.05-.025-.058-.033-.007-.057-.007-.063-.031-.007-.023-.012-.029-.006-.035.007-.006.019-.01.043-.011.025-.002.052-.002.06-.008.008-.005.01-.02.019-.027.01-.006.047-.012.047-.012s.045.021.086.051a.486.486 0 0 1 .071.067" style="fill:#ed72aa;stroke:#000;stroke-width:.0118"/><path d="M8.249 7.302s-.025.007-.034.02c-.011.016-.01.032-.01.032s.021-.017.048-.01c.027.007.029.01.041.009s.039-.01.039-.01-.023.025-.02.043c.002.017.006.025.005.034-.002.022-.018.049-.018.049s.01-.006.032-.01a.15.15 0 0 0 .054-.024c.012-.009.028-.031.028-.031s-.005.03 0 .043c.005.013.007.05.007.05s.014-.013.026-.019a.082.082 0 0 0 .028-.021c.004-.007.01-.032.01-.032s.003.027.012.04c.009.013.021.052.021.052s.009-.026.018-.036c.01-.011.021-.024.021-.032.001-.008-.002-.026-.002-.026l.012.026m-.35.018s.015-.025.029-.033c.013-.008.032-.022.037-.024a.718.718 0 0 0 .028-.014m.03.155.043-.022c.021-.012.036-.034.036-.034" class="st31"/><path d="m8.665 7.227-.013-.019-.006-.015" class="st6"/><path d="M8.535 7.722s.063.038.061.069a.173.173 0 0 1-.034.073" class="st31"/><path d="m8.374 7.087-.006-.019a.054.054 0 0 1-.004-.008s.027 0 .026.008c-.001.008-.009.008-.01.011l-.006.008z" class="st66"/><path d="m8.497 7.046-.002-.013s.024 0 .035.008a.085.085 0 0 1 .028.032c-.004.002-.017-.009-.027-.012l-.014.002c-.007 0-.01-.003-.011-.006-.001-.005.001-.01.001-.01l-.01-.001z" class="st67"/><path d="m8.374 7.204.01-.016.01.015-.02.001M8.399 7.204l.012-.016.013.014-.025.002M8.388 7.105l.025.009-.022.011-.003-.02M8.419 7.113l.022.005-.018.014-.004-.019" class="st66"/><path d="M8.031 7.082s.015.01.026.012a.152.152 0 0 0 .025.002c.002 0 .005-.016.003-.027-.006-.036-.04-.044-.04-.044s.01.022.005.032a.079.079 0 0 1-.019.025zM7.961 7.114s-.013-.023-.041-.02c-.028.003-.046.024-.046.024s.031-.001.038.004c.011.007.015.026.015.026s.017-.01.022-.016l.012-.018zM7.927 7.207s-.024.003-.036.018c-.014.015-.012.042-.012.042s.015-.016.029-.016c.014 0 .036.005.036.005s-.007-.017-.007-.024-.01-.025-.01-.025zM8.006 7.511s-.013-.013-.036-.01c-.022.005-.037.03-.037.03s.019-.005.031-.002c.011.002.019.013.019.013l.014-.013.009-.018zM7.98 7.6s-.019-.003-.036.01c-.016.013-.017.038-.017.038s.016-.013.028-.011.027.008.027.008l.003-.019c.003-.012-.005-.026-.005-.026zM8.024 7.682s-.002.024.01.038c.012.015.035.018.035.018s-.007-.015-.009-.024c-.002-.012.01-.023.01-.023s-.01-.01-.022-.01l-.024.001zM8.249 7.894s-.016-.019-.037-.019c-.022.001-.044.021-.044.021s.027-.002.034.007l.014.02.017-.01.016-.019zM8.183 7.978s-.029-.004-.043.011c-.014.014-.013.04-.013.04s.017-.018.033-.017c.016.001.033.01.033.01l-.004-.023-.006-.021zM8.244 8.067s-.014.019-.004.035c.01.015.032.023.032.023s-.007-.012-.003-.025c.003-.01.021-.024.021-.024l-.046-.009zM8.625 8.103s-.025-.006-.039.002c-.014.008-.025.042-.025.042s.022-.018.039-.016c.016.003.028.009.028.009s.002-.014.001-.023l-.004-.014zM8.637 8.193s-.019.019-.012.035c.007.016.019.033.019.033s-.001-.024.007-.03c.011-.01.032-.011.032-.011s-.017-.015-.022-.016l-.024-.011zM8.732 8.221s-.01.023.009.038c.018.016.034.017.034.017s-.014-.024-.01-.036c.005-.014.017-.022.017-.022s-.023-.007-.026-.006c-.004 0-.024.009-.024.009z" class="st64"/><path d="m8.675 6.981-.009.001a.04.04 0 0 1-.008.011c-.008.007-.02.008-.026.002a.017.017 0 0 1-.005-.013.015.015 0 0 1-.016 0c-.008-.004-.01-.015-.004-.024l.003-.005v-.01l-.01.003-.004.005c-.006.008-.016.01-.021.005a.02.02 0 0 1-.004-.008s-.003.003-.005.003c-.017.005-.023-.031-.024-.04l-.005.008s.005.021.002.039c-.002.017-.008.035-.008.035a.306.306 0 0 1 .091.049.27.27 0 0 1 .072.073s.018-.01.036-.015.042-.006.042-.006l.007-.006c-.011.001-.049.003-.049-.013l.002-.005s-.006 0-.009-.002c-.005-.004-.005-.013.001-.021l.006-.004v-.01l-.01.002-.005.003c-.008.007-.02.007-.026.001-.005-.003-.006-.008-.004-.014a.017.017 0 0 1-.014-.001c-.008-.005-.009-.016-.003-.024l.01-.01-.003-.009z" class="st3"/><path d="M8.606 7.002a.005.005 0 0 1 .007 0c.002.002.003.005.002.006a.005.005 0 0 1-.007 0c-.003-.001-.004-.004-.002-.006zM8.635 7.026l-.01-.008c-.002-.001-.002-.003-.001-.005h.006l.01.008.01.008c.001.001.002.003.001.004h-.006l-.01-.007M8.582 6.99l-.008-.004c-.002-.002-.003-.004-.002-.006h.005l.008.005.008.004c.002.001.003.003.002.005-.001.001-.003.002-.005.001l-.008-.005M8.55 6.969a.005.005 0 0 1 .007 0c.003.002.003.004.002.006-.002.002-.005.002-.007 0s-.003-.005-.002-.006zM8.667 7.048c.002-.002.001-.004-.002-.006-.002-.002-.006-.002-.007 0-.001.001 0 .004.002.006h.007zM8.685 7.067l.007.006c.002.002.004.002.006.001v-.005l-.008-.006-.006-.006c-.002-.001-.005-.002-.006-.001-.002.001-.001.003 0 .005l.007.006M8.714 7.092a.005.005 0 0 0-.002-.007c-.002-.002-.006-.002-.007 0a.005.005 0 0 0 .002.007c.002.001.005.002.007 0z" class="st67"/><path d="M8.63 6.911h-.018l-.004.026.002.004h.005l.023-.015-.008-.015" class="st3"/><path d="M8.63 6.911h-.018l-.004.026.002.004h.005l.023-.015-.008-.015" class="st3"/><path d="m8.581 6.925-.001.016.028.004.005-.002-.001-.005-.016-.021-.015.008" class="st3"/><path d="m8.639 6.958-.015.008-.017-.022V6.94l.004-.002.029.003-.001.017" class="st3"/><path d="M8.602 6.938c.003-.004.008-.006.012-.003.005.002.006.007.003.011s-.008.005-.012.003c-.004-.003-.005-.008-.003-.011zM8.536 6.911c-.001 0-.004-.014-.008-.021-.002-.006-.012-.014-.012-.014.001-.002.013-.006.027.003.012.009-.001.026-.001.026l-.006.006z" class="st3"/><path d="m8.568 6.92-.013.011-.021-.018.002-.003.001-.004.028-.002.003.016" class="st3"/><path d="M8.533 6.909c.002-.004.006-.007.009-.006.003.001.005.005.003.01a.011.011 0 0 1-.01.006c-.003-.002-.004-.006-.002-.01zM8.699 6.953l-.018-.002-.008.026.002.004h.005l.025-.012-.006-.016" class="st3"/><path d="m8.648 6.961-.003.016.028.007.005-.001v-.004l-.013-.024-.017.006" class="st3"/><path d="m8.701 7.001-.016.006-.013-.024v-.004l.005-.001.027.007-.003.016" class="st3"/><path d="M8.668 6.976c.003-.003.009-.004.012-.001.004.003.005.008.002.011-.003.004-.009.004-.013.002-.004-.003-.004-.008-.001-.012zM8.76 7.008l.003.017-.027.009-.005-.001v-.004l.011-.024.018.003" class="st3"/><path d="m8.755 7.056-.017.004-.01-.025.002-.004.004-.001.026.01-.005.016" class="st3"/><path d="m8.708 7.01-.005.015.026.01.005-.001.001-.004-.009-.024-.018.004" class="st3"/><path d="M8.737 7.039c.004-.003.004-.008.001-.012a.01.01 0 0 0-.013 0c-.003.003-.004.008 0 .012a.01.01 0 0 0 .012 0zM8.78 7.093l.024.003a.056.056 0 0 1 .016.008c.002-.002.003-.013-.009-.024-.012-.008-.027.007-.027.007s-.004.003-.004.006z" class="st3"/><path d="m8.763 7.066-.009.014.023.015.003-.002.004-.001-.004-.027-.017.001" class="st3"/><path d="M8.782 7.096c.004-.002.006-.007.005-.009-.002-.003-.007-.003-.011-.001-.005.002-.007.007-.005.009.002.003.007.003.011.001z" class="st3"/></g><g id="inescutcheon"><ellipse cx="7.68" cy="8.43" rx=".499" ry=".549" style="fill:#ad1519;stroke:#000;stroke-width:.0185"/><ellipse cx="7.68" cy="8.429" rx=".351" ry=".403" style="fill:#005bbf;stroke:#000;stroke-width:.0185"/><g id="fdl"><path d="M7.514 8.152s-.041.044-.041.086c0 .042.017.076.017.076a.046.046 0 0 0-.043-.028c-.025 0-.046.019-.046.043 0 .007.004.017.007.023l.015.03c.005-.012.017-.018.031-.018.018 0 .033.014.033.03l-.001.008h-.037v.031h.033l-.025.049.033-.013.025.027.025-.027.033.013-.025-.049h.033v-.031h-.037l-.001-.007c0-.017.014-.03.033-.03.013 0 .025.006.03.017l.015-.03a.062.062 0 0 0 .007-.023c0-.024-.021-.043-.046-.043a.046.046 0 0 0-.043.028s.017-.035.017-.076c.001-.041-.042-.086-.042-.086z" class="st70"/><path d="M7.448 8.433h.134v-.031h-.134v.031z" class="st71"/></g><g id="fdl_00000006679679506012287580000005438269010890637979_"><path d="M7.84 8.152s-.041.044-.041.086c0 .042.017.076.017.076a.046.046 0 0 0-.043-.028c-.025 0-.046.019-.046.043 0 .007.004.017.007.023l.015.03c.005-.012.017-.018.031-.018.018 0 .033.014.033.03l-.001.008h-.037v.031h.033l-.025.049.033-.013.024.027.026-.027.033.013-.025-.049h.033v-.031H7.87l-.001-.007c0-.017.014-.03.033-.03.013 0 .025.006.03.017l.015-.03a.068.068 0 0 0 .007-.023c0-.024-.021-.043-.046-.043a.046.046 0 0 0-.043.028s.017-.035.017-.076c.001-.041-.042-.086-.042-.086z" class="st70"/><path d="M7.774 8.433h.134v-.031h-.134v.031z" class="st71"/></g><g id="fdl_00000181765850669828353290000011983763621304441761_"><path d="M7.677 8.426s-.041.044-.041.086c0 .042.017.076.017.076a.046.046 0 0 0-.043-.028c-.025 0-.046.019-.046.043 0 .007.004.017.007.023l.015.03c.005-.011.017-.017.03-.017.018 0 .033.014.033.03l-.001.007h-.037v.031h.033l-.025.049.033-.013.025.027.026-.027.033.013-.025-.049h.033v-.03h-.037l-.001-.008c0-.017.014-.03.033-.03.013 0 .025.006.03.017l.015-.03a.068.068 0 0 0 .007-.023c0-.024-.021-.043-.046-.043a.046.046 0 0 0-.043.028s.017-.035.017-.076c.001-.041-.042-.086-.042-.086z" class="st70"/><path d="M7.611 8.707h.134v-.03h-.134v.03z" class="st71"/></g></g></g></g></svg>